<?xml version="1.0" encoding="utf-8"?> <!-- Generator: IcoMoon.io --> <!DOCTYPE svg PUBLIC "-//W3C//DTD SVG 1.1//EN" "http://www.w3.org/Graphics/SVG/1.1/DTD/svg11.dtd"> <svg version="1.1" id="Calque_1" xmlns="http://www.w3.org/2000/svg" xmlns:xlink="http://www.w3.org/1999/xlink" x="0px" y="0px" width="32" height="32" viewBox="0 0 32 32" enable-background="new 0 0 100 80" xml:space="preserve"> <g><path d="M 17.708,14.958c0,0.892, 0.508,1.662, 1.25,2.042l0,6.084 c0,0.458-0.375,0.834-0.833,0.834l-2.292,0 c-0.575,0-1.042,0.466-1.042,1.042S 15.258,26, 15.833,26l8.333,0 c 0.575,0, 1.042-0.466, 1.042-1.042s-0.467-1.042-1.042-1.042l-2.292,0 c-0.458,0-0.834-0.375-0.834-0.834L21.041,17 c 0.742-0.379, 1.25-1.15, 1.25-2.042c0-1.266-1.025-2.292-2.292-2.292S 17.708,13.692, 17.708,14.958z M 14.375,15.042 c0,1.042, 0.279,2.016, 0.762,2.858l 0.063,0.096c 0.17,0.342, 0.521,0.575, 0.925,0.575c 0.575,0, 1.042-0.471, 1.042-1.054 c0-0.2-0.055-0.388-0.15-0.546l-0.113-0.192c-0.284-0.517-0.446-1.108-0.446-1.738c0-1.975, 1.588-3.625, 3.542-3.625 s 3.542,1.65, 3.542,3.625c0,0.629-0.162,1.22-0.446,1.738l-0.112,0.192c-0.096,0.158-0.15,0.346-0.15,0.546 c0,0.583, 0.467,1.054, 1.042,1.054c 0.404,0, 0.754-0.234, 0.925-0.575l 0.063-0.096c 0.484-0.842, 0.762-1.816, 0.762-2.858 c0-3.138-2.516-5.708-5.625-5.708S 14.375,11.904, 14.375,15.042z M 11.042,15.042c0,2.038, 0.667,3.916, 1.796,5.429l 0.075,0.104 c 0.188,0.258, 0.496,0.425, 0.838,0.425c 0.575,0, 1.042-0.47, 1.042-1.050c0-0.242-0.079-0.466-0.216-0.646l-0.080-0.108 c-0.862-1.158-1.371-2.596-1.371-4.154c0-3.834, 3.079-6.958, 6.875-6.958c 3.795,0, 6.875,3.125, 6.875,6.958 c0,1.558-0.508,2.995-1.371,4.154l-0.080,0.108c-0.137,0.18-0.216,0.405-0.216,0.646c0,0.58, 0.467,1.050, 1.042,1.050 c 0.342,0, 0.65-0.166, 0.837-0.425l 0.075-0.104c 1.129-1.512, 1.796-3.392, 1.796-5.429C 28.958,10.046, 24.946,6, 20,6 C 15.054,6, 11.042,10.046, 11.042,15.042z"></path></g></svg>