<?xml version="1.0" encoding="utf-8"?> <!-- Generator: IcoMoon.io --> <!DOCTYPE svg PUBLIC "-//W3C//DTD SVG 1.1//EN" "http://www.w3.org/Graphics/SVG/1.1/DTD/svg11.dtd"> <svg version="1.1" id="Calque_1" xmlns="http://www.w3.org/2000/svg" xmlns:xlink="http://www.w3.org/1999/xlink" x="0px" y="0px" width="32" height="32" viewBox="0 0 32 32" enable-background="new 0 0 100 80" xml:space="preserve"> <g><path d="M 34.814,19.664c-0.405-0.529-0.858-0.955-1.402-1.29 c-0.84,1.864-2.716,3.162-4.892,3.162c-2.176,0-4.052-1.298-4.892-3.162c-0.54,0.335-0.996,0.761-1.401,1.29 c-0.287,0.374-0.443,1.124-0.454,1.526c 0.004,0.105,0,1.73,0,1.73c0,0.764, 0.62,1.384, 1.384,1.384l10.725,0 c 0.765,0, 1.384-0.62, 1.384-1.384c0,0-0.003-1.626,0-1.73C 35.257,20.788, 35.101,20.037, 34.814,19.664z M 26.641,17.47 c-0.29,0.031-0.567,0.070-0.83,0.115c-0.301,0.076-0.529,0.349-0.529,0.674c0,0.135, 0.038,0.256, 0.104,0.363 c 0.727,0.931, 1.861,1.53, 3.135,1.53c 1.242,0, 2.35-0.567, 3.080-1.457c 0.096-0.118, 0.152-0.27, 0.152-0.436 c0-0.339-0.246-0.623-0.571-0.681c-0.27-0.048-0.554-0.091-0.858-0.122c-0.392-0.072-0.685-0.349-0.685-0.764 c0-0.38, 0.284-0.671, 0.664-0.72c 0.038-0.007, 0.128-0.010, 0.128-0.010c 1.861-0.132, 3.128-0.509, 3.962-1.229 c 0.114-0.121, 0.183-0.284, 0.183-0.463c0-0.36-0.273-0.654-0.623-0.689c-1.028-0.207-1.8-1.058-1.8-2.079l0,-0.145 c0-2.021-1.626-3.661-3.633-3.661c-2.007,0-3.633,1.64-3.633,3.661l0,0.145 c0,1.020-0.772,1.872-1.799,2.079 c-0.349,0.035-0.623,0.329-0.623,0.689c0,0.18, 0.069,0.342, 0.183,0.463c 0.838,0.72, 2.104,1.097, 3.969,1.229 c 0.056,0, 0.108,0.003, 0.156,0.010c 0.387,0.056, 0.63,0.332, 0.63,0.72C 27.403,17.135, 27.071,17.418, 26.641,17.47zM 17.773,19.664c-1.003-1.311-2.297-1.99-4.484-2.208 c-0.394-0.079-0.692-0.428-0.692-0.844c0-0.304, 0.976-1.214, 0.968-1.221c 1.007-1.042, 1.547-2.734, 1.547-4.034 c0-2.021-1.626-3.661-3.633-3.661c-2.007,0-3.633,1.64-3.633,3.661c0,1.308, 0.526,3.010, 1.543,4.052c0,0, 0.972,0.9, 0.972,1.204 c0,0.439-0.332,0.806-0.761,0.858c-2.142,0.225-3.422,0.9-4.415,2.194c-0.287,0.374-0.443,1.124-0.454,1.526 c 0.004,0.105,0,1.73,0,1.73c0,0.764, 0.62,1.384, 1.384,1.384l10.726,0 c 0.765,0, 1.384-0.62, 1.384-1.384c0,0-0.004-1.626,0-1.73 C 18.217,20.788, 18.060,20.037, 17.773,19.664z"></path></g></svg>