<?xml version="1.0" encoding="utf-8"?> <!-- Generator: IcoMoon.io --> <!DOCTYPE svg PUBLIC "-//W3C//DTD SVG 1.1//EN" "http://www.w3.org/Graphics/SVG/1.1/DTD/svg11.dtd"> <svg version="1.1" id="Calque_1" xmlns="http://www.w3.org/2000/svg" xmlns:xlink="http://www.w3.org/1999/xlink" x="0px" y="0px" width="32" height="32" viewBox="0 0 32 32" enable-background="new 0 0 100 80" xml:space="preserve"> <g><path d="M 20,6.073c-0.384,0-0.703,0.259-0.803,0.613l-2.037,6.293L10.47,12.979 c-0.462,0-0.829,0.401-0.829,0.867c0,0.284, 0.142,0.54, 0.358,0.691c 0.134,0.091, 5.403,3.941, 5.403,3.941 s-2.024,6.215-2.063,6.314c-0.030,0.091-0.052,0.19-0.052,0.293c0,0.466, 0.375,0.842, 0.837,0.842 c 0.177,0, 0.341-0.056, 0.479-0.151L 20,21.848c0,0, 5.274,3.842, 5.396,3.928c 0.138,0.094, 0.302,0.151, 0.478,0.151 c 0.462,0, 0.838-0.38, 0.838-0.842c0-0.103-0.021-0.202-0.052-0.293c-0.039-0.099-2.062-6.314-2.062-6.314S 29.866,14.628, 30,14.537 c 0.216-0.151, 0.358-0.406, 0.358-0.694c0-0.462-0.358-0.863-0.82-0.863L22.848,12.98 l-2.046-6.293C 20.703,6.332, 20.384,6.073, 20,6.073z "></path></g></svg>