<?xml version="1.0" encoding="utf-8"?> <!-- Generator: IcoMoon.io --> <!DOCTYPE svg PUBLIC "-//W3C//DTD SVG 1.1//EN" "http://www.w3.org/Graphics/SVG/1.1/DTD/svg11.dtd"> <svg version="1.1" id="Calque_1" xmlns="http://www.w3.org/2000/svg" xmlns:xlink="http://www.w3.org/1999/xlink" x="0px" y="0px" width="58.90625" height="32" viewBox="0 0 58.90625 32" enable-background="new 0 0 220 110" xml:space="preserve"> <g><path d="M 32.008,19.411l-0.775,0 l0,-2.616 c 0.34-0.313, 0.54-0.38, 0.65-0.38c 0.074,0, 0.128,0.016, 0.165,0.049c 0.041,0.037, 0.071,0.102, 0.089,0.193 c 0.024,0.123, 0.041,0.227, 0.048,0.306c 0.007,0.082, 0.011,0.197, 0.011,0.339l0,3.394 l2.003,0 l0,-1.283 l-0.663,0 l0,-2.527 l 0.199-0.235 c 0.013-0.016, 0.059-0.062, 0.195-0.15c 0.17-0.11, 0.359-0.098, 0.439-0.042c 0.039,0.027, 0.061,0.092, 0.072,0.142 c 0.024,0.111, 0.040,0.212, 0.047,0.301c 0.007,0.094, 0.011,0.244, 0.011,0.447l0,3.349 l1.857,0 l0,-1.283 l-0.517,0 l0,-2.065 c0-1.868-0.874-2.26-1.608-2.26c-0.194,0-0.39,0.039-0.582,0.114c-0.189,0.074-0.321,0.14-0.407,0.203 c-0.046,0.033-0.103,0.079-0.175,0.136c-0.266-0.301-0.585-0.453-0.947-0.453c-0.284,0-0.579,0.11-0.897,0.333l0,-0.176 l-1.969,0 l0,1.284 l0.64,0 l0,2.884 l-0.64,0 l0,1.283 l2.755,0 L32.008,19.411 zM 39.666,20.852c 0.919,0, 1.929-0.314, 3-0.934l 0.15-0.087 l-0.618-1.189l-0.165,0.098c-0.881,0.52-1.686,0.783-2.39,0.783c-0.312,0-0.585-0.045-0.81-0.133 c-0.213-0.084-0.373-0.199-0.476-0.342c-0.116-0.161-0.197-0.292-0.24-0.389c-0.019-0.043-0.038-0.091-0.055-0.143l4.327,0 l 0.018-0.161c 0.023-0.207, 0.035-0.445, 0.035-0.705c0-0.653-0.257-1.249-0.765-1.772c-0.509-0.525-1.213-0.791-2.090-0.791 c-0.886,0-1.612,0.287-2.159,0.853c-0.544,0.564-0.82,1.257-0.82,2.058c0,0.795, 0.274,1.477, 0.816,2.026 C 37.967,20.573, 38.721,20.852, 39.666,20.852z M 39.598,16.415c 0.7,0, 1.153,0.268, 1.378,0.817l-2.807,0 C 38.453,16.683, 38.923,16.415, 39.598,16.415zM 49.49,15.825c-0.132-0.133-0.243-0.236-0.337-0.314 c-0.106-0.088-0.276-0.179-0.521-0.276c-0.523-0.21-1.171-0.195-1.732,0.040c-0.294,0.123-0.515,0.243-0.675,0.366 c-0.073,0.056-0.154,0.123-0.241,0.2l0,-0.598 l-2.588,0 l0,1.284 l1.247,0 l0,2.884 l-1.348,0 l0,1.283 l4.767,0 l0,-1.283 l-2.079,0 l0,-1.845 l 0.035-0.035 c 0.042-0.049, 0.088-0.098, 0.137-0.147c 0.052-0.052, 0.12-0.118, 0.205-0.2c 0.084-0.080, 0.166-0.154, 0.246-0.224 c 0.079-0.067, 0.167-0.139, 0.265-0.21c 0.093-0.069, 0.186-0.129, 0.275-0.177c 0.088-0.047, 0.178-0.086, 0.269-0.117 c 0.345-0.115, 0.589,0.005, 0.791,0.352l 0.103,0.178l 1.328-1.015L 49.49,15.825zM 52.598,20.852c 0.928,0, 1.952-0.424, 3.043-1.262l 0.138-0.106 l-0.745-1.055l-0.148,0.105c-0.28,0.199-0.52,0.359-0.713,0.476c-0.19,0.114-0.435,0.231-0.731,0.346 c-0.284,0.111-0.553,0.168-0.799,0.168c-0.548,0-0.941-0.153-1.203-0.468c-0.271-0.324-0.402-0.682-0.402-1.091 c0-0.132, 0.022-0.278, 0.066-0.433c 0.044-0.156, 0.123-0.328, 0.234-0.512c 0.101-0.167, 0.271-0.31, 0.503-0.425 c 0.24-0.118, 0.536-0.178, 0.881-0.178c 0.285,0, 0.518,0.031, 0.693,0.091c 0.155,0.054, 0.265,0.137, 0.337,0.255 c 0.083,0.138, 0.139,0.257, 0.164,0.355c 0.029,0.111, 0.061,0.281, 0.098,0.507l 0.029,0.173l 1.298-0.17l-0.023-0.179 c-0.044-0.336-0.066-0.66-0.066-0.965c0-0.336, 0.022-0.707, 0.067-1.103l 0.020-0.182l-1.228-0.127l-0.080,0.488 c-0.452-0.313-0.944-0.471-1.465-0.471c-0.889,0-1.606,0.296-2.135,0.88c-0.523,0.579-0.788,1.254-0.788,2.009 c0,0.81, 0.281,1.5, 0.835,2.049C 51.030,20.574, 51.744,20.852, 52.598,20.852zM 61.556,19.411L 59.681,19.411L 59.681,15.243L 56.734,15.243L 56.734,16.527L 58.34,16.527L 58.34,19.411L 56.431,19.411L 56.431,20.695L 61.556,20.695 zM 34.103,26.481c-0.881,0.52-1.686,0.784-2.39,0.784 c-0.312,0-0.585-0.045-0.81-0.134c-0.213-0.083-0.373-0.198-0.475-0.342c-0.116-0.161-0.197-0.292-0.24-0.39 c-0.019-0.042-0.038-0.090-0.055-0.143l4.326,0 l 0.018-0.161c 0.023-0.207, 0.035-0.445, 0.035-0.706c0-0.652-0.257-1.248-0.765-1.772 c-0.509-0.525-1.213-0.791-2.090-0.791c-0.886,0-1.612,0.287-2.158,0.853c-0.544,0.564-0.82,1.257-0.82,2.058 c0,0.795, 0.275,1.477, 0.816,2.026c 0.542,0.551, 1.296,0.83, 2.241,0.83c 0.919,0, 1.928-0.314, 3-0.934l 0.15-0.087l-0.618-1.189 L 34.103,26.481z M 31.667,24.157c 0.7,0, 1.152,0.268, 1.377,0.817l-2.807,0 C 30.522,24.425, 30.992,24.157, 31.667,24.157zM 39.614,23.096c-0.36-0.091-0.82-0.138-1.368-0.138l-2.981,0 l0,1.218 l0.805,0 l0,3.117 l-0.805,0 l0,1.217 l2.95,0 c 0.975,0, 1.713-0.197, 2.197-0.584c 0.652-0.527, 0.982-1.292, 0.982-2.274 c0-0.773-0.246-1.421-0.729-1.923C 40.353,23.407, 40,23.194, 39.614,23.096z M 39.421,26.996c-0.237,0.197-0.643,0.297-1.206,0.297 l-0.728,0 L37.487,24.176 l0.769,0 c 0.387,0, 0.681,0.026, 0.875,0.078c 0.163,0.044, 0.309,0.146, 0.445,0.316c 0.234,0.278, 0.348,0.635, 0.348,1.091 C 39.924,26.279, 39.76,26.716, 39.421,26.996zM 44.794,26.814l1.505,0 l0,0.413 c-0.405,0.113-0.775,0.169-1.104,0.169 c-0.589,0-1.037-0.152-1.335-0.452c-0.302-0.305-0.449-0.697-0.449-1.197c0-0.516, 0.153-0.916, 0.467-1.224 c 0.316-0.309, 0.705-0.459, 1.191-0.459c 0.212,0, 0.397,0.029, 0.55,0.084c 0.153,0.056, 0.268,0.116, 0.343,0.177 c 0.067,0.056, 0.127,0.139, 0.177,0.246c 0.072,0.152, 0.098,0.239, 0.106,0.284c 0.017,0.083, 0.035,0.192, 0.056,0.326l 0.036,0.241 l 1.407-0.153l-0.068-0.281c-0.079-0.324-0.118-0.665-0.118-1.013c0-0.268, 0.014-0.544, 0.040-0.823l 0.027-0.278l-1.339,0 l-0.035,0.265 c-0.358-0.216-0.776-0.326-1.247-0.326c-0.835,0-1.561,0.278-2.157,0.829c-0.602,0.555-0.907,1.267-0.907,2.115 c0,0.495, 0.114,0.961, 0.337,1.386c 0.227,0.431, 0.598,0.794, 1.102,1.080c 0.5,0.283, 1.106,0.426, 1.802,0.426 c 0.687,0, 1.482-0.159, 2.362-0.473l 0.169-0.060l0,-1.301 l0.491,0 L48.207,25.597 l-3.412,0 L44.794,26.814 zM 53.942,24.807c0-0.648-0.191-1.158-0.568-1.518 c-0.374-0.358-0.94-0.539-1.681-0.539c-0.643,0-1.459,0.2-2.428,0.597l-0.17,0.070l 0.525,1.236l 0.168-0.072 c 0.767-0.333, 1.404-0.502, 1.894-0.502c 0.239,0, 0.431,0.027, 0.571,0.079c 0.116,0.044, 0.193,0.104, 0.232,0.185 c 0.065,0.135, 0.089,0.215, 0.097,0.257c 0.004,0.022, 0.008,0.052, 0.012,0.095c-0.449-0.046-0.815-0.069-1.092-0.069 c-0.483,0-0.915,0.067-1.286,0.202c-0.378,0.137-0.671,0.318-0.87,0.538c-0.193,0.213-0.336,0.431-0.427,0.648 c-0.091,0.219-0.137,0.438-0.137,0.648c0,0.506, 0.206,0.961, 0.612,1.35c 0.403,0.387, 0.92,0.584, 1.535,0.584 c 0.544,0, 1.105-0.18, 1.672-0.536l0,0.378 l2.306,0 l0,-1.284 l-0.966,0 L53.942,24.807 z M 52.601,26.365c-0.553,0.597-1.119,0.9-1.683,0.9 c-0.206,0-0.383-0.064-0.541-0.194c-0.148-0.122-0.221-0.253-0.221-0.399c0-0.032, 0.005-0.072, 0.013-0.115 c 0.002-0.013, 0.017-0.064, 0.085-0.18c 0.045-0.077, 0.113-0.147, 0.2-0.207c 0.091-0.063, 0.237-0.122, 0.434-0.176 c 0.2-0.056, 0.445-0.083, 0.727-0.083c 0.175,0, 0.506,0.033, 0.987,0.1L52.601,26.365 zM 61.716,23.567c-0.132-0.132-0.243-0.236-0.337-0.314 c-0.106-0.088-0.277-0.178-0.52-0.276c-0.524-0.21-1.172-0.195-1.733,0.040c-0.294,0.123-0.515,0.243-0.675,0.366 c-0.073,0.056-0.154,0.123-0.241,0.2l0,-0.597 l-2.588,0 l0,1.283 l1.247,0 l0,2.883 l-1.348,0 l0,1.284 l4.767,0 l0,-1.284 l-2.079,0 l0,-1.844 l 0.035-0.035 c 0.042-0.049, 0.088-0.098, 0.137-0.147c 0.052-0.052, 0.12-0.118, 0.205-0.2c 0.084-0.080, 0.165-0.154, 0.246-0.224 c 0.079-0.067, 0.167-0.139, 0.265-0.211c 0.093-0.069, 0.186-0.128, 0.275-0.177c 0.088-0.047, 0.178-0.087, 0.269-0.117 c 0.345-0.115, 0.589,0.005, 0.791,0.352l 0.103,0.178l 1.328-1.015L 61.716,23.567zM 18.609,9.457c-0.576-0.41-0.87-0.785-0.87-1.752 c0-0.37, 0.736-2.086, 0.736-2.086c-1.135,0.019-3.037,1.256-3.037,1.256s 1.002-1.468, 2.356-2.321c 0.072-0.046-1.533-0.091-2.337,0.335 C 16,3.28, 18.56,2.599, 18.56,2.599s-0.473-0.281-3.17-0.195C 11.651,2.521, 10.12,5.821, 9.311,7.931 c-0.293,0.765-0.501,1.294-1.273,2.069c-0.763,0.448-1.462,0.999-2.093,1.653c-1.984,2.056-2.991,4.582-2.991,7.508 c0,2.899, 0.999,5.382, 2.969,7.379c 1.97,1.999, 4.73,3.013, 8.205,3.013c 3.344,0, 5.856-0.943, 9.266-3.48l 0.029-0.022 l 0.011-0.006l-2.236-3.124c-2.611,1.949-4.21,2.765-7.157,2.765c-1.285,0-2.414-0.188-3.357-0.559 c-0.938-0.368-1.649-0.885-2.117-1.537c-0.47-0.653-0.804-1.198-0.992-1.617c-0.081-0.181-0.159-0.382-0.237-0.613l-0.281-0.827 l17.022,0 l 0.007-0.063c 0.087-0.778, 0.131-1.67, 0.131-2.654c0-2.349-0.933-4.503-2.774-6.401 C 20.636,10.581, 19.688,9.928, 18.609,9.457z M 15.997,16.837c 0.137-0.314, 0.199-0.693, 0.172-1.157 c-0.413,0.319-1.462,0.247-1.841-0.241c-0.298-0.507-0.253-1.265, 0.434-1.536c-2.635-0.611-3.64,1.506-2.978,2.934L7.31,16.837 l 0.472-0.913c 1.2-2.324, 3.248-3.502, 6.087-3.502c 2.956,0, 4.943,1.195, 5.906,3.553l 0.353,0.863L15.997,16.837 z"></path></g></svg>