<?xml version="1.0" encoding="utf-8"?> <!-- Generator: IcoMoon.io --> <!DOCTYPE svg PUBLIC "-//W3C//DTD SVG 1.1//EN" "http://www.w3.org/Graphics/SVG/1.1/DTD/svg11.dtd"> <svg version="1.1" id="Calque_1" xmlns="http://www.w3.org/2000/svg" xmlns:xlink="http://www.w3.org/1999/xlink" x="0px" y="0px" width="32" height="32" viewBox="0 0 32 32" enable-background="new 0 0 140 140" xml:space="preserve"> <g><path d="M 17.822,12.889c 0.64,0.148, 1.149,0.693, 1.297,1.289 c 0.051,0.278, 0.293,0.489, 0.584,0.489c 0.326,0, 0.592-0.267, 0.592-0.592c0-0.427-0.358-1.075-0.847-1.561 c-0.48-0.474-1.052-0.809-1.523-0.809c-0.326,0-0.592,0.275-0.592,0.602C 17.333,12.596, 17.544,12.839, 17.822,12.889z M 9.679,20.656 c-0.459,0.459-0.459,1.206,0,1.665c 0.459,0.459, 1.206,0.459, 1.662,0l 3.404-3.401c 0.794,0.495, 1.73,0.782, 2.738,0.782 c 2.864,0, 5.184-2.32, 5.184-5.184c0-2.864-2.32-5.184-5.184-5.184c-2.865,0-5.184,2.32-5.184,5.184 c0,1.004, 0.288,1.943, 0.782,2.737L 9.679,20.656z M 13.779,14.519c0-2.044, 1.659-3.703, 3.703-3.703c 2.044,0, 3.703,1.659, 3.703,3.703 s-1.659,3.703-3.703,3.703C 15.437,18.221, 13.779,16.563, 13.779,14.519z"></path></g></svg>