<?xml version="1.0" encoding="utf-8"?> <!-- Generator: IcoMoon.io --> <!DOCTYPE svg PUBLIC "-//W3C//DTD SVG 1.1//EN" "http://www.w3.org/Graphics/SVG/1.1/DTD/svg11.dtd"> <svg version="1.1" id="Calque_1" xmlns="http://www.w3.org/2000/svg" xmlns:xlink="http://www.w3.org/1999/xlink" x="0px" y="0px" width="32" height="32" viewBox="0 0 32 32" enable-background="new 0 0 140 140" xml:space="preserve"> <g><path d="M 9.577,16c0,3.548, 2.875,6.423, 6.423,6.423 s 6.423-2.875, 6.423-6.423c0-3.548-2.875-6.423-6.423-6.423S 9.577,12.452, 9.577,16z M 15.317,11.627c0-0.377, 0.306-0.683, 0.683-0.683 c 0.377,0, 0.683,0.306, 0.683,0.683c0,0.377-0.306,0.683-0.683,0.683C 15.623,12.31, 15.317,12.004, 15.317,11.627z M 10.944,16 c0-0.377, 0.306-0.683, 0.683-0.683s 0.683,0.306, 0.683,0.683c0,0.377-0.306,0.683-0.683,0.683S 10.944,16.377, 10.944,16z M 19.69,16 c0-0.377, 0.306-0.683, 0.683-0.683c 0.377,0, 0.683,0.306, 0.683,0.683c0,0.377-0.306,0.683-0.683,0.683 C 19.996,16.683, 19.69,16.377, 19.69,16z M 15.317,20.373c0-0.377, 0.306-0.683, 0.683-0.683c 0.377,0, 0.683,0.306, 0.683,0.683 s-0.306,0.683-0.683,0.683C 15.623,21.056, 15.317,20.75, 15.317,20.373z M 14.997,16.325c-0.145-0.142-1.984-2.014-1.984-2.014 c-0.208-0.208-0.208-0.544,0-0.752c 0.208-0.208, 0.544-0.208, 0.751,0l 1.804,1.809c 0.161,0.159, 0.427,0.159, 0.585,0l 2.629-2.629 c 0.208-0.208, 0.544-0.208, 0.752,0c 0.208,0.208, 0.208,0.544,0,0.752c0,0-2.667,2.7-2.81,2.843 c-0.221,0.216-0.527,0.349-0.861,0.349C 15.524,16.683, 15.218,16.547, 14.997,16.325z"></path></g></svg>