<?xml version="1.0" encoding="utf-8"?> <!-- Generator: IcoMoon.io --> <!DOCTYPE svg PUBLIC "-//W3C//DTD SVG 1.1//EN" "http://www.w3.org/Graphics/SVG/1.1/DTD/svg11.dtd"> <svg version="1.1" id="Calque_1" xmlns="http://www.w3.org/2000/svg" xmlns:xlink="http://www.w3.org/1999/xlink" x="0px" y="0px" width="32" height="32" viewBox="0 0 32 32" enable-background="new 0 0 100 80" xml:space="preserve"> <g><path d="M 10.4,24c0,0.884, 0.716,1.6, 1.6,1.6l16,0 c 0.884,0, 1.6-0.716, 1.6-1.6L29.6,12.8 c0-0.884-0.716-1.6-1.6-1.6L20.988,11.2 l 3.124-3.124c 0.384-0.384, 0.384-1.004,0-1.388c-0.384-0.384-1.004-0.384-1.388,0L 18.208,11.2l-0.020,0 l-3.312-3.312 c-0.384-0.384-1.004-0.384-1.388,0c-0.384,0.384-0.384,1.004,0,1.388L 15.408,11.2L12,11.2 c-0.884,0-1.6,0.716-1.6,1.6L10.4,24 z M 13.28,13.2l9.84,0 c 0.488,0, 0.88,0.392, 0.88,0.88l0,8.64 C 24,23.208, 23.608,23.6, 23.12,23.6L13.28,23.6 c-0.488,0-0.88-0.392-0.88-0.88l0,-8.64 C 12.4,13.592, 12.792,13.2, 13.28,13.2z M 25.6,14.2c0-0.552, 0.448-1, 1-1s 1,0.448, 1,1c0,0.552-0.448,1-1,1S 25.6,14.752, 25.6,14.2z M 25.6,17.4 c0-0.552, 0.448-1, 1-1s 1,0.448, 1,1c0,0.552-0.448,1-1,1S 25.6,17.952, 25.6,17.4z"></path></g></svg>