<?xml version="1.0" encoding="utf-8"?> <!-- Generator: IcoMoon.io --> <!DOCTYPE svg PUBLIC "-//W3C//DTD SVG 1.1//EN" "http://www.w3.org/Graphics/SVG/1.1/DTD/svg11.dtd"> <svg version="1.1" id="Calque_1" xmlns="http://www.w3.org/2000/svg" xmlns:xlink="http://www.w3.org/1999/xlink" x="0px" y="0px" width="32" height="32" viewBox="0 0 32 32" enable-background="new 0 0 140 140" xml:space="preserve"> <g><path d="M 18.922,6.442l-0.561,1.693c 5.066,1.676, 7.813,7.141, 6.138,12.205l 1.693,0.56 C 28.176,14.9, 24.922,8.427, 18.922,6.442 M 17.801,9.828l-0.56,1.693c 3.195,1.057, 4.927,4.504, 3.871,7.699l 1.693,0.56 C 24.172,15.65, 21.931,11.195, 17.801,9.828M 17.139,16.545c-1.192-2.773-3.111-4.886-4.081-4.491c-1.648,0.67, 0.982,3.887-7.112,7.178 c-0.7,0.284-0.877,1.421-0.584,2.101c 0.292,0.68, 1.248,1.357, 1.948,1.072c 0.12-0.049, 0.565-0.192, 0.565-0.192 c 0.5,0.67, 1.022,0.272, 1.207,0.698c 0.223,0.512, 0.707,1.624, 0.872,2.003c 0.165,0.378, 0.538,0.728, 0.81,0.625 c 0.27-0.103, 1.191-0.453, 1.543-0.587c 0.352-0.134, 0.436-0.448, 0.329-0.696c-0.116-0.267-0.592-0.345-0.728-0.657 c-0.136-0.311-0.579-1.309-0.707-1.624c-0.174-0.428, 0.195-0.776, 0.73-0.832c 3.684-0.384, 4.373,1.891, 5.627,1.381 C 18.528,22.131, 18.331,19.319, 17.139,16.545 M 16.724,21.045c-0.216,0.087-1.666-1.056-2.592-3.213 c-0.926-2.156-0.81-4.127-0.595-4.214c 0.215-0.088, 1.63,1.292, 2.556,3.448C 17.020,19.222, 16.939,20.958, 16.724,21.045"></path></g></svg>