<?xml version="1.0" encoding="utf-8"?> <!-- Generator: IcoMoon.io --> <!DOCTYPE svg PUBLIC "-//W3C//DTD SVG 1.1//EN" "http://www.w3.org/Graphics/SVG/1.1/DTD/svg11.dtd"> <svg version="1.1" id="Calque_1" xmlns="http://www.w3.org/2000/svg" xmlns:xlink="http://www.w3.org/1999/xlink" x="0px" y="0px" width="32" height="32" viewBox="0 0 32 32" enable-background="new 0 0 140 140" xml:space="preserve"> <g><path d="M 11.787,18.476L11.787,13.134 L8.513,13.134 c-0.948,0-1.723,0.775-1.723,1.723l0,5.17 c0,0.948, 0.775,1.723, 1.723,1.723 l0.861,0 l0,2.585 l 2.585-2.585L16.267,21.75 c 0.948,0, 1.723-0.776, 1.723-1.723l0,-1.568 c-0.056,0.011-0.114,0.018-0.172,0.018L11.787,18.476 z M 23.488,7.665L15.733,7.665 c-0.948,0-1.723,0.776-1.723,1.723l0,6.893 l6.032,0 L 22.625,18.866L22.625,16.281 l0.862,0 c 0.947,0, 1.723-0.776, 1.723-1.723 L25.21,9.388 C 25.21,8.441, 24.435,7.665, 23.488,7.665"></path></g></svg>