<?xml version="1.0" standalone="no"?>
<!DOCTYPE svg PUBLIC "-//W3C//DTD SVG 1.1//EN" "http://www.w3.org/Graphics/SVG/1.1/DTD/svg11.dtd" >
<svg xmlns="http://www.w3.org/2000/svg">
<metadata></metadata>
<defs>
<font id="podkovabold" horiz-adv-x="1114" >
<font-face units-per-em="2048" ascent="1638" descent="-410" />
<missing-glyph horiz-adv-x="480" />
<glyph horiz-adv-x="2048" />
<glyph horiz-adv-x="2048" />
<glyph unicode="&#xd;" horiz-adv-x="532" />
<glyph unicode=" "  horiz-adv-x="480" />
<glyph unicode="&#x09;" horiz-adv-x="480" />
<glyph unicode="&#xa0;" horiz-adv-x="480" />
<glyph unicode="!" horiz-adv-x="506" d="M77 132q0 36 14 68t38.5 56t56.5 38.5t68 14.5q35 0 67 -14.5t56.5 -39.5t39 -57t14.5 -66q0 -35 -14.5 -67t-39 -56.5t-56.5 -39t-67 -14.5q-36 0 -68.5 14t-56.5 38.5t-38 56.5t-14 68zM103 1251h305l-58 -840h-197z" />
<glyph unicode="&#x22;" horiz-adv-x="737" d="M90 1251h236l-60 -418h-116zM411 1251h236l-60 -418h-116z" />
<glyph unicode="#" horiz-adv-x="1378" d="M70 202v200h275l66 242h-270v200h325l100 361h202l-100 -361h214l100 361h202l-100 -361h254v-200h-309l-66 -242h304v-200h-359l-99 -361h-202l99 361h-214l-99 -361h-202l99 361h-220zM547 402h214l66 242h-214z" />
<glyph unicode="$" horiz-adv-x="1034" d="M90 328l198 24l17 -120q76 -26 133 -34v290q-328 62 -328 352q0 131 81 221.5t247 111.5v162h182v-160q99 -8 179 -29.5t114 -39.5l35 -293l-209 -21l-26 168q-35 8 -93 15v-261l33 -5q183 -30 264 -115.5t81 -229.5q0 -97 -33 -169t-90 -113t-119.5 -61.5t-135.5 -27.5 v-148h-182v148q-175 12 -314 68zM335 867q0 -80 103 -117v218q-103 -24 -103 -101zM620 202q148 32 148 151q0 41 -27.5 65.5t-104.5 37.5l-16 2v-256z" />
<glyph unicode="%" horiz-adv-x="1526" d="M66 913q0 372 292 372q293 0 293 -372q0 -371 -293 -371q-292 0 -292 371zM261 913q0 -54 6.5 -90t19.5 -58t30.5 -31.5t40.5 -9.5q22 0 40 9.5t31 31.5t19.5 58t6.5 90t-6.5 90.5t-19.5 58.5t-31 31.5t-40 9.5q-23 0 -40.5 -9.5t-30.5 -31.5t-19.5 -58.5t-6.5 -90.5z M411 -45l548 1323h192l-546 -1323h-194zM907 327q0 372 292 372q293 0 293 -372q0 -371 -293 -371q-292 0 -292 371zM1102 327q0 -54 6.5 -90t19.5 -58t30.5 -31.5t40.5 -9.5q22 0 40 9.5t31 31.5t19.5 58t6.5 90t-6.5 90.5t-19.5 58.5t-31 31.5t-40 9.5q-23 0 -40.5 -9.5 t-30.5 -31.5t-19.5 -58.5t-6.5 -90.5z" />
<glyph unicode="&#x26;" horiz-adv-x="1407" d="M43 334q0 64 15 118t38.5 92.5t62.5 75.5t74.5 62t88.5 56q-95 142 -95 253q0 71 20.5 125.5t52 86t74.5 51.5t82.5 26.5t82.5 6.5q136 0 224 -70t88 -203q0 -101 -52 -174.5t-147 -141.5q96 -106 254 -237q43 115 94 350l298 96l70 -216l-168 -56q-58 -208 -110 -319 l307 -215l-120 -201l-309 219q-80 -99 -188.5 -149.5t-268.5 -50.5q-75 0 -140 12.5t-126.5 42.5t-105.5 76t-70 119t-26 165zM302 334q0 -103 66.5 -158.5t157.5 -55.5q93 0 149.5 33t117.5 101q-197 159 -336 311q-74 -55 -114.5 -109.5t-40.5 -121.5zM450 997 q0 -38 15.5 -74.5t51.5 -96.5q32 23 49 38t41 40t35.5 52.5t11.5 58.5q0 49 -28 77.5t-78 28.5q-49 0 -73.5 -34t-24.5 -90z" />
<glyph unicode="'" horiz-adv-x="416" d="M90 1251h236l-60 -418h-116z" />
<glyph unicode="(" horiz-adv-x="596" d="M43 539q0 139 35 272t93 247t132.5 202.5t154.5 140.5l134 -171q-88 -87 -143.5 -183t-87 -188.5t-43 -175.5t-11.5 -144t11.5 -144t43 -175.5t87 -188.5t143.5 -183l-134 -171q-79 51 -153.5 139.5t-132.5 202t-93.5 246.5t-35.5 274z" />
<glyph unicode=")" horiz-adv-x="596" d="M4 -152q88 87 143.5 183t87 189t43 176t11.5 143t-11.5 143t-43 175.5t-87 189t-143.5 183.5l134 171q53 -34 104 -85.5t97 -116t85.5 -141t68 -161t44.5 -175t16 -183.5q0 -92 -16 -182t-44 -174t-67 -161t-85 -142t-98 -117t-105 -86z" />
<glyph unicode="*" horiz-adv-x="965" d="M43 941l74 242l275 -139l-45 305h252l-42 -305l279 139l82 -239l-302 -55l204 -221l-202 -152l-143 258l-143 -257l-208 145l218 229z" />
<glyph unicode="+" horiz-adv-x="952" d="M66 525v212h283v294h235v-294h304v-212h-304v-315h-235v315h-283z" />
<glyph unicode="," horiz-adv-x="506" d="M78 106q0 75 49 122t126 47q69 0 123 -53.5t54 -125.5q0 -53 -19 -105.5t-53.5 -98.5t-62 -76.5t-66.5 -66.5t-45 -42l-78 88q35 47 60 86t39 69q-64 17 -95.5 60t-31.5 96z" />
<glyph unicode="-" horiz-adv-x="903" d="M109 353v206h687v-206h-687z" />
<glyph unicode="." horiz-adv-x="508" d="M78 132q0 36 14 68t38.5 56t56.5 38.5t68 14.5q35 0 67 -14.5t56.5 -39.5t39 -57t14.5 -66q0 -35 -14.5 -67t-39 -56.5t-56.5 -39t-67 -14.5q-36 0 -68.5 14t-56.5 38.5t-38 56.5t-14 68z" />
<glyph unicode="/" horiz-adv-x="866" d="M-31 -268l665 1474h261l-664 -1474h-262z" />
<glyph unicode="0" horiz-adv-x="1194" d="M66 602q0 128 19 225.5t53.5 169.5t83 121t108 78.5t127.5 42t141 12.5q112 0 209.5 -30t169.5 -104t113 -199t41 -316q0 -186 -40.5 -310.5t-111.5 -199.5t-169 -106t-212 -31q-112 0 -209 30t-169 104t-113 198.5t-41 314.5zM343 602q0 -91 10 -156t27.5 -110.5t42 -73 t53 -42.5t60 -20t64.5 -5q52 0 97.5 13.5t80 56.5t55 123.5t22.5 213.5q0 95 -10.5 162t-28.5 112.5t-43 72.5t-53 41t-59 18t-61 4q-49 0 -95.5 -12.5t-82.5 -54.5t-57.5 -123.5t-21.5 -219.5z" />
<glyph unicode="1" horiz-adv-x="1071" d="M84 863l467 388h172v-1022h306v-229h-891v229h322v632l-223 -187z" />
<glyph unicode="2" horiz-adv-x="1147" d="M63 1044q106 100 210 153.5t228 53.5q220 0 335 -99.5t115 -278.5q0 -198 -221 -386l-278 -257h338l95 148l196 -112l-164 -266h-787l-51 177l448 426q83 79 126.5 142.5t43.5 122.5q0 85 -39.5 119.5t-134.5 34.5q-41 0 -85.5 -15t-78.5 -36t-62.5 -42.5t-59.5 -51.5z " />
<glyph unicode="3" horiz-adv-x="1094" d="M49 127l164 198q106 -74 174 -106t150 -32q104 0 159.5 43.5t55.5 115.5q0 93 -63 127.5t-199 34.5h-100v227h145q94 0 142 31t48 109q0 143 -203 143q-77 0 -137.5 -24.5t-122.5 -75.5l-180 165q92 85 188.5 126.5t256.5 41.5q209 0 331.5 -97.5t122.5 -268.5 q0 -82 -57.5 -149.5t-135.5 -98.5q240 -93 240 -289q0 -81 -28 -149.5t-85 -124t-155.5 -87.5t-228.5 -32q-83 0 -163.5 17.5t-135.5 43t-98.5 51t-84.5 60.5z" />
<glyph unicode="4" horiz-adv-x="1118" d="M92 344v215l448 724l201 -114l-365 -609h313v388h262v-388h149v-216h-149v-115h141v-229h-653v229h250v115h-597z" />
<glyph unicode="5" horiz-adv-x="1028" d="M66 117l152 180q54 -43 132 -80.5t139 -37.5q110 0 163.5 52t53.5 169q0 88 -56 140.5t-130 52.5q-56 0 -102.5 -14t-74.5 -36.5t-40 -34.5t-19 -23l-158 76v645h788v-229h-523v-187q87 25 167 25q187 0 304.5 -120t117.5 -293q0 -210 -127.5 -328.5t-371.5 -118.5 q-201 0 -367 122q-31 23 -48 40z" />
<glyph unicode="6" horiz-adv-x="1126" d="M63 600q0 288 162 469.5t431 181.5q89 0 184.5 -29t150.5 -66l-77 -203q-52 34 -121.5 51.5t-132.5 17.5q-140 0 -230 -97.5t-90 -237.5q154 109 323 109q66 0 124 -12.5t112.5 -42t93.5 -75t62.5 -117t23.5 -161.5q0 -53 -12.5 -107t-47 -114.5t-87.5 -106t-143 -75.5 t-205 -30q-263 0 -392 160t-129 485zM347 496q29 -321 252 -321q100 0 156 66t56 147q0 109 -56 159t-144 50q-72 0 -146 -29t-118 -72z" />
<glyph unicode="7" horiz-adv-x="938" d="M18 880l62 326h839v-155q-175 -275 -267.5 -543t-107.5 -508h-266q32 258 106 481t230 496h-328l-30 -149z" />
<glyph unicode="8" horiz-adv-x="1087" d="M68 334q0 39 11.5 82t39 82.5t74.5 73.5t118 55q-48 13 -86.5 41t-66.5 64.5t-43 78t-15 80.5q0 96 35 164t95.5 111.5t141.5 64t174 20.5t174.5 -20.5t142.5 -64t96.5 -111.5t35.5 -164q0 -39 -15 -80t-42.5 -78t-66.5 -65t-87 -41q71 -21 118 -55t74.5 -74.5t39 -83.5 t11.5 -80q0 -104 -39.5 -176t-105.5 -117t-152 -65.5t-179 -20.5q-98 0 -185.5 20.5t-153.5 66t-105 117.5t-39 175zM344 334q0 -39 15 -69.5t41.5 -52t63 -33t80.5 -11.5q47 0 85 11.5t65 33.5t42 52.5t15 68.5t-13.5 70.5t-39 56.5t-63 38t-84.5 14q-50 0 -88.5 -13.5 t-64.5 -37.5t-40 -57t-14 -71zM365 891q0 -70 48.5 -118.5t130.5 -48.5q87 0 136.5 48t49.5 119q0 68 -48.5 107.5t-137.5 39.5q-84 0 -131.5 -40t-47.5 -107z" />
<glyph unicode="9" horiz-adv-x="1133" d="M53 818q0 53 12.5 107t47 114.5t87.5 106t143 75.5t205 30q263 0 392 -160t129 -485q0 -288 -162 -469.5t-431 -181.5q-89 0 -184.5 29t-150.5 66l77 203q52 -34 121.5 -51.5t132.5 -17.5q140 0 230 97.5t90 237.5q-154 -109 -323 -109q-66 0 -124 12.5t-112.5 42 t-93.5 75t-62.5 117t-23.5 161.5zM321 818q0 -109 56 -159t144 -50q72 0 146 29t118 72q-29 321 -252 321q-100 0 -156 -66t-56 -147z" />
<glyph unicode=":" horiz-adv-x="530" d="M94 132q0 36 14 68t38.5 56t56.5 38.5t68 14.5q35 0 67 -14.5t56.5 -39.5t39 -57t14.5 -66q0 -35 -14.5 -67t-39 -56.5t-56.5 -39t-67 -14.5q-36 0 -68.5 14t-56.5 38.5t-38 56.5t-14 68zM94 776q0 36 14 68t38.5 56t56.5 38.5t68 14.5q35 0 67 -14.5t56.5 -39.5t39 -57 t14.5 -66q0 -35 -14.5 -67t-39 -56.5t-56.5 -39t-67 -14.5q-36 0 -68.5 14t-56.5 38.5t-38 56.5t-14 68z" />
<glyph unicode=";" horiz-adv-x="555" d="M94 776q0 36 14 68t38.5 56t56.5 38.5t68 14.5q35 0 67 -14.5t56.5 -39.5t39 -57t14.5 -66q0 -35 -14.5 -67t-39 -56.5t-56.5 -39t-67 -14.5q-36 0 -68.5 14t-56.5 38.5t-38 56.5t-14 68zM98 108q0 38 13 69t36.5 53.5t55.5 34.5t70 12q34 0 65.5 -14.5t56.5 -39t40 -57 t15 -68.5q0 -51 -18 -100t-47 -93.5t-64.5 -83.5t-73 -72t-43.5 -40l-78 88l60 86q25 39 39 69q-64 17 -95.5 59.5t-31.5 96.5z" />
<glyph unicode="&#x3c;" horiz-adv-x="1067" d="M57 552v186l842 416l100 -205l-684 -304v-10l702 -340l-98 -205z" />
<glyph unicode="=" horiz-adv-x="952" d="M66 337v212h822v-212h-822zM66 701v212h822v-212h-822z" />
<glyph unicode="&#x3e;" horiz-adv-x="1061" d="M45 295l702 340v10l-684 304l100 205l842 -416v-186l-862 -462z" />
<glyph unicode="?" horiz-adv-x="856" d="M41 886l29 269q5 4 14.5 10.5t43 23t71 29t98.5 23t127 10.5q112 0 192 -24.5t123 -68.5t62.5 -97t19.5 -118q0 -91 -41.5 -147.5t-141.5 -108.5q-120 -62 -152.5 -89.5t-32.5 -65.5q0 -31 35 -81l-152 -72q-47 46 -67.5 89t-20.5 107q0 75 49 125.5t191 124.5 q53 28 76 52.5t23 67.5q0 54 -37.5 85.5t-105.5 31.5q-89 0 -172 -31l-24 -167zM252 132q0 36 14 68t38.5 56t56.5 38.5t68 14.5q35 0 67 -14.5t56.5 -39.5t39 -57t14.5 -66q0 -35 -14.5 -67t-39 -56.5t-56.5 -39t-67 -14.5q-36 0 -68.5 14t-56.5 38.5t-38 56.5t-14 68z" />
<glyph unicode="@" horiz-adv-x="1526" d="M51 436q0 97 26.5 194.5t84.5 190.5t141 164.5t205 115t267 43.5q213 0 371.5 -90.5t239 -243.5t80.5 -347q0 -103 -29.5 -186t-78.5 -133t-109.5 -76.5t-126.5 -26.5q-65 0 -105.5 20.5t-81.5 58.5q-84 -68 -176 -68q-156 0 -243.5 88t-87.5 272q0 80 23.5 146.5t61 110 t86.5 73.5t99 43t100 13q72 0 145 -27.5t126 -68.5v-482q24 -18 46 -18q46 0 80 67t34 192q0 246 -111.5 361t-342.5 115q-205 0 -340.5 -139t-135.5 -362q0 -132 40.5 -233.5t108.5 -159.5t147.5 -86.5t167.5 -28.5q107 0 215 50l110 -153q-4 -4 -12.5 -11t-39 -25 t-65.5 -32t-92.5 -25t-119.5 -11q-170 0 -306 56t-223 153.5t-133 226.5t-46 279zM635 410q0 -98 39.5 -144t107.5 -46q55 0 96 20v374q-32 11 -73 11q-78 0 -124 -52t-46 -163z" />
<glyph unicode="A" horiz-adv-x="1327" d="M8 0v229h202l259 748h-161v229h493l337 -977h180v-229h-543v229h100l-51 174h-331l-53 -174h111v-229h-543zM543 572h232l-114 390z" />
<glyph unicode="B" horiz-adv-x="1202" d="M84 0v229h167v748h-167v229h544q264 0 382.5 -80t118.5 -275q0 -132 -121 -238q74 -36 116 -114t42 -161q0 -160 -103 -249t-308 -89h-671zM515 229h193q98 0 142 26.5t44 110.5q0 73 -43 103t-132 30h-204v-270zM515 707h206q31 0 68 18.5t51.5 46.5t14.5 67 q0 75 -46 106.5t-158 31.5h-136v-270z" />
<glyph unicode="C" horiz-adv-x="1202" d="M61 607q0 302 171 473t459 171q71 0 138.5 -11t114 -27t82.5 -32t53 -27l17 -11l61 -308l-224 -48l-45 210q1 1 -28 9.5t-78 16.5t-89 8q-173 0 -265.5 -109.5t-92.5 -314.5q0 -209 93.5 -320t264.5 -111q45 0 94 13t75 25l27 13l45 185l222 -51l-67 -309 q-7 -4 -19 -10.5t-53 -23t-84.5 -29.5t-109 -23.5t-130.5 -10.5q-142 0 -256.5 38.5t-199 116.5t-130.5 204t-46 293z" />
<glyph unicode="D" horiz-adv-x="1362" d="M84 977v229h567q154 0 271 -34t203.5 -107t131.5 -195t45 -290q0 -129 -31 -228.5t-86 -165t-136 -108t-174.5 -60.5t-207.5 -18h-582v229h166v748h-167zM515 229h115q110 0 179.5 14t121.5 51.5t74.5 106t22.5 176.5q0 220 -90 310t-287 90h-136v-748z" />
<glyph unicode="E" horiz-adv-x="1225" d="M83 0v229h168v748h-166v229h937l127 -379l-218 -74l-74 224h-342v-252h334v-227h-334v-269h396l72 202l216 -76l-123 -355h-993z" />
<glyph unicode="F" horiz-adv-x="1177" d="M83 977v229h940l133 -396l-218 -73l-80 240h-343v-256h307v-230h-307v-262h261v-229h-692v229h167v748h-168z" />
<glyph unicode="G" horiz-adv-x="1251" d="M61 602q0 316 161.5 482t433.5 166q80 0 155.5 -15t127 -36t91.5 -42.5t59 -36.5l19 -15l68 -295l-235 -54l-50 212q0 2 -24 16.5t-73.5 30t-100.5 15.5q-191 0 -274.5 -104.5t-83.5 -323.5q0 -118 25 -201t73.5 -130t110.5 -67.5t144 -20.5q68 0 116 11.5t103 37.5v192 h-262v228h515v-508q-110 -97 -216 -143t-257 -46q-102 0 -192.5 22.5t-170.5 72t-138 123.5t-91.5 184t-33.5 245z" />
<glyph unicode="H" horiz-adv-x="1518" d="M84 0v229h167v748h-167v229h543l-1 -2h1v-227h-112v-255h489v255h-112v229h543v-229h-167v-748h167v-229h-539v229h108v265h-489v-265h108v-229h-539z" />
<glyph unicode="I" horiz-adv-x="821" d="M83 0v229h197v748h-195v229h653v-229h-194v-748h194v-229h-655z" />
<glyph unicode="J" horiz-adv-x="1036" d="M16 353l225 53l44 -210q40 -12 77 -12q48 0 90 20t56 62q21 59 21 239v472h-250v229h683v-229h-169v-486q0 -177 -31 -292q-24 -83 -85.5 -139.5t-139 -80.5t-169.5 -24q-50 0 -98.5 10t-79.5 23t-58 29.5t-37 24t-14 11.5z" />
<glyph unicode="K" horiz-adv-x="1368" d="M83 0v229h167v748h-167v229h541v-229h-110v-269h137l196 269h-84v229h543v-229h-192l-272 -339l309 -409h206v-229h-624v229h98l-196 258h-121v-258h111v-229h-542z" />
<glyph unicode="L" horiz-adv-x="1129" d="M83 0v229h184v748h-184v229h646v-229h-198v-748h299l72 202l216 -76l-123 -355h-912z" />
<glyph unicode="M" horiz-adv-x="1780" d="M76 0v229h165v748h-165v229h574l246 -701l217 701h584v-229h-166v-748h166v-229h-561v229h131v758l-283 -842h-173l-340 844v-760h151v-229h-546z" />
<glyph unicode="N" horiz-adv-x="1537" d="M76 0v229h170v748h-168v229h556l406 -834v605h-151v229h572v-229h-191v-977h-301l-493 978v-749h172v-229h-572z" />
<glyph unicode="O" horiz-adv-x="1343" d="M61 604q0 157 45 278t126 203t192.5 124t245.5 42q135 0 247.5 -42t194 -124t126.5 -203t45 -278q0 -153 -43.5 -274t-123.5 -204t-193 -127t-251 -44q-134 0 -246 42.5t-193 124.5t-126.5 203t-45.5 279zM335 604q0 -210 84 -318.5t253 -108.5q168 0 252.5 108t84.5 319 q0 212 -84 319t-253 107q-168 0 -252.5 -107.5t-84.5 -318.5z" />
<glyph unicode="P" horiz-adv-x="1171" d="M84 0v229h165v748h-165v229h531q137 0 234.5 -26t155.5 -78.5t84.5 -125t26.5 -170.5q0 -217 -116 -313.5t-385 -96.5h-102v-167h224v-229h-653zM513 619h100q61 0 99 6t70 24.5t46 55.5t14 96q0 105 -54 140.5t-175 35.5h-100v-358z" />
<glyph unicode="Q" horiz-adv-x="1343" d="M61 604q0 157 45 278t126 203t192.5 124t245.5 42q135 0 247.5 -42t194 -124t126.5 -203t45 -278q0 -292 -154 -464l230 -136l-166 -205l-248 209q-123 -53 -273 -53q-134 0 -246 42.5t-193 124.5t-126.5 203t-45.5 279zM335 604q0 -210 84 -318.5t253 -108.5 q168 0 252.5 108t84.5 319q0 212 -84 319t-253 107q-168 0 -252.5 -107.5t-84.5 -318.5z" />
<glyph unicode="R" horiz-adv-x="1251" d="M84 0v229h165v748h-165v229h541q142 0 240 -28t152 -84t76.5 -127t22.5 -168q0 -274 -224 -362l129 -208h212v-229h-366l-212 393h-142v-164h98v-229h-527zM515 620h98q65 0 109 9t70.5 30t38 55t11.5 84q0 51 -14 85t-42 55t-71.5 30t-101.5 9h-98v-357z" />
<glyph unicode="S" horiz-adv-x="1124" d="M72 323l217 27l17 -132q136 -42 234 -42q118 0 195 42t77 133q0 45 -30 71.5t-115 40.5l-187 30q-199 32 -292.5 129.5t-93.5 259.5q0 78 26.5 143t80.5 116.5t144.5 80.5t210.5 29q139 0 254 -27.5t160 -51.5l40 -319l-230 -24l-27 184q-94 20 -188 20q-63 0 -110.5 -10 t-81.5 -38.5t-34 -73.5q0 -117 206 -150l142 -23q200 -32 288 -125t88 -250q0 -70 -16.5 -129t-45 -100.5t-68.5 -73.5t-83 -51.5t-94 -32t-96.5 -17t-93.5 -4.5q-262 0 -457 77z" />
<glyph unicode="T" horiz-adv-x="1133" d="M14 770v436h1103v-436h-230v207h-190v-748h167v-229h-601v229h169v748h-189v-207h-229z" />
<glyph unicode="U" horiz-adv-x="1409" d="M76 977v229h544v-229h-113v-496q0 -156 52 -232t169 -76q124 0 170 81t46 247v476h-113v229h544v-229h-167v-482q0 -135 -28.5 -235t-72.5 -157.5t-110 -91.5t-128.5 -45t-140.5 -11q-53 0 -98 5t-96 20t-91.5 40t-79 66.5t-64 96.5t-41 134.5t-15.5 177.5v482h-167z" />
<glyph unicode="V" horiz-adv-x="1364" d="M10 977v229h574v-229h-108l158 -452l73 -258l73 259l147 451h-118v229h544v-229h-138l-375 -977h-271l-402 977h-157z" />
<glyph unicode="W" horiz-adv-x="1927" d="M14 977v229h574v-229h-106l105 -451l53 -259l48 259l141 529h328l143 -529l47 -259l44 259l104 451h-128v229h545v-229h-129l-311 -977h-308l-169 796l-199 -796h-308l-307 977h-167z" />
<glyph unicode="X" horiz-adv-x="1368" d="M10 0v226h214l301 365l-324 386h-170v229h563v-229h-111l189 -228l201 228h-101v229h548v-229h-183l-308 -386l301 -366h228v-225h-613v225h110l-174 207l-184 -207h84v-225h-571z" />
<glyph unicode="Y" horiz-adv-x="1307" d="M-14 977v229h582v-229h-120l224 -309l216 309h-108v229h543v-229h-168l-359 -503v-247h192v-227h-647v227h195v247l-393 503h-157z" />
<glyph unicode="Z" horiz-adv-x="1077" d="M20 833l63 373h912v-163l-611 -814h382l70 191l219 -74l-119 -346h-902v182l600 795h-349l-36 -176z" />
<glyph unicode="[" horiz-adv-x="496" d="M49 -284v1649h415v-209h-171v-1231h171v-209h-415z" />
<glyph unicode="\" horiz-adv-x="877" d="M-31 1206h259l677 -1473h-262z" />
<glyph unicode="]" horiz-adv-x="496" d="M31 -75h171v1231h-171v209h415v-1649h-415v209z" />
<glyph unicode="_" horiz-adv-x="1212" d="M86 -30h1040v-221h-1040v221z" />
<glyph unicode="`" horiz-adv-x="717" d="M82 1257l116 220l436 -329l-69 -108z" />
<glyph unicode="a" horiz-adv-x="1100" d="M55 252q0 293 390 293h215q0 48 -2.5 76t-12 60t-29 48.5t-54.5 28t-86 11.5q-83 0 -154 -25l-9 -89l-219 27l39 229q163 60 343 60q91 0 162 -14.5t117.5 -35t78.5 -58t48.5 -68.5t25 -82t10 -82t1.5 -85v-334l166 -53l-71 -213l-260 88q-141 -74 -296 -74 q-189 0 -296 77t-107 215zM319 265q0 -58 38.5 -87.5t108.5 -29.5q107 0 194 53v165h-210q-68 0 -99.5 -20.5t-31.5 -80.5z" />
<glyph unicode="b" horiz-adv-x="1155" d="M-39 1172l74 220l393 -133v-347q41 27 101 42.5t114 15.5q215 0 335.5 -128t120.5 -374q0 -238 -136 -373t-360 -135q-77 0 -149 13t-119 30t-86.5 38t-56.5 33.5t-25 20.5v1004zM428 192q57 -27 173 -27q113 0 173.5 82.5t60.5 220.5q0 137 -48.5 214t-145.5 77 q-58 0 -120.5 -22t-92.5 -50v-495z" />
<glyph unicode="c" horiz-adv-x="999" d="M55 455q0 246 135.5 380.5t361.5 134.5q93 0 189 -17.5t137 -38.5l56 -282l-218 -46l-31 157q-64 16 -131 16q-116 0 -175.5 -78t-59.5 -226q0 -139 59.5 -214.5t175.5 -75.5q144 0 289 108l105 -154q0 -2 -19.5 -18t-58 -39.5t-85 -46.5t-109.5 -39t-124 -16 q-226 0 -361.5 129t-135.5 366z" />
<glyph unicode="d" horiz-adv-x="1167" d="M55 468q0 149 66.5 264.5t179 176.5t251.5 61q76 0 178 -29v158l-207 73l74 220l392 -133v-1032l167 -56l-71 -224l-258 87q-114 -74 -275 -74q-225 0 -361 135t-136 373zM319 470q0 -139 60.5 -222t174.5 -83q97 0 176 47v511q-75 36 -176 36q-105 0 -170 -83t-65 -206z " />
<glyph unicode="e" horiz-adv-x="1040" d="M55 461q0 121 35.5 215.5t101 160t157 99.5t203.5 34q208 0 321 -119.5t113 -352.5q0 -70 -13 -128h-646q13 -195 227 -195q176 0 332 59l83 -164q-188 -110 -417 -110q-113 0 -205 33t-157 96.5t-100 157t-35 214.5zM333 564h409q0 190 -188 190q-107 0 -152.5 -45 t-68.5 -145z" />
<glyph unicode="f" horiz-adv-x="743" d="M14 0v207h172v516h-172v207h172v40q0 203 90 299t307 96q100 0 180.5 -31.5t129.5 -70.5l-100 -163q-36 19 -54 27t-52 17t-69 9q-96 0 -134 -55.5t-38 -167.5h254v-207h-254v-516h184v-207h-616z" />
<glyph unicode="g" horiz-adv-x="1171" d="M45 -400l92 206q116 -47 202 -68.5t187 -21.5q128 0 181.5 30.5t53.5 72.5q0 20 -5 33.5t-19.5 27t-46 20t-78.5 6.5h-375v395q-50 32 -85 63t-64.5 88.5t-29.5 127.5q0 180 123.5 285t330.5 105q157 0 253 -52l317 108l80 -230l-233 -33q40 -74 40 -172q0 -77 -25 -139 t-67.5 -103t-102 -67.5t-124.5 -37.5q-61 -11 -128 -11h-12l-75 1v-112h200q186 0 281.5 -79.5t95.5 -224.5q0 -86 -39.5 -150.5t-109 -101.5t-154 -55t-183.5 -18q-281 0 -481 107zM299 588q0 -44 19 -75.5t49 -51.5t68.5 -29.5t78.5 -9.5q48 0 87.5 10t68 31t44 52 t15.5 73q0 91 -56 141t-159 50t-159 -49t-56 -142z" />
<glyph unicode="h" horiz-adv-x="1298" d="M14 1181l67 209l388 -130v-363q127 73 306 73q157 0 244 -100t87 -284v-379h172v-207h-514v207h82v346q0 95 -36.5 146.5t-130.5 51.5q-42 0 -94 -12t-83 -24l-33 -12v-496h84v-207h-514v207h170v909z" />
<glyph unicode="i" horiz-adv-x="639" d="M25 0v207h170v516h-170v207h430v-723h170v-207h-600zM134 1188q0 35 14.5 67t38.5 56.5t56 39t67 14.5q34 0 66 -14.5t57 -39t39.5 -56.5t14.5 -67q0 -36 -14.5 -68t-38.5 -56.5t-56 -38.5t-68 -14t-68 14t-56 38t-38 56.5t-14 68.5z" />
<glyph unicode="j" horiz-adv-x="659" d="M-57 -483l27 204q70 -10 123 -10q44 0 83 15.5t56.5 50.5t17.5 119v827h-173v207h433v-1004q0 -83 -11.5 -167t-62.5 -151t-144 -91t-175 -24q-57 0 -174 24zM190 1188q0 71 52 124t125 53q70 0 123.5 -53.5t53.5 -123.5q0 -73 -53 -125t-124 -52q-74 0 -125.5 51.5 t-51.5 125.5z" />
<glyph unicode="k" horiz-adv-x="1161" d="M14 1181l67 209l388 -130v-700h135l97 163h-104v207h517v-207h-150l-179 -262l179 -254h169v-207h-314l-244 354h-106v-147h60v-207h-492v207h172v909z" />
<glyph unicode="l" horiz-adv-x="668" d="M25 1181l67 209l388 -130v-1053h172v-207h-604v207h172v909z" />
<glyph unicode="m" horiz-adv-x="1829" d="M10 741l67 209l299 -94q44 39 125 76.5t152 37.5q110 0 180 -26.5t120 -91.5q53 40 134 79t155 39q100 0 169 -19t121 -65.5t76.5 -129t25.5 -204.5v-344h173v-208h-509v208h76v339q0 49 -6 81.5t-21.5 61t-46.5 42t-79 13.5q-83 0 -170 -67v-470h75v-208h-417v208h81 v339q0 49 -5.5 81.5t-21.5 61t-47 42t-79 13.5q-83 0 -172 -67v-470h80v-208h-512v208h172v474z" />
<glyph unicode="n" horiz-adv-x="1284" d="M10 739l67 209l289 -99q90 62 172 91.5t201 29.5q97 0 168.5 -30.5t112.5 -86t60 -124.5q18 -66 18 -145v-8v-369h171v-207h-515v207h85v338q-1 93 -38.5 144.5t-128.5 51.5q-57 0 -114 -20.5t-92 -48.5v-465h80v-207h-515v207h175v464z" />
<glyph unicode="o" d="M55 463q0 121 35.5 215.5t101 159.5t157 98.5t203.5 33.5q115 0 208 -33.5t159 -98.5t102 -159.5t36 -215.5t-35.5 -215t-101.5 -158t-159.5 -97t-208.5 -33q-113 0 -204.5 33t-156.5 97t-100.5 158t-35.5 215zM319 463q0 -144 59 -221t176 -77q118 0 178.5 77t60.5 221 t-60.5 220t-178.5 76q-117 0 -176 -76t-59 -220z" />
<glyph unicode="p" horiz-adv-x="1194" d="M10 753l67 209l296 -100q146 108 297 108q101 0 185.5 -31.5t148 -92.5t98.5 -158t35 -221q0 -238 -136 -375t-360 -137q-88 0 -177 21v-229h173v-206h-605v206h172v941zM464 193q68 -32 173 -32q116 0 175 81.5t59 220.5q0 136 -55 216t-161 80q-113 0 -191 -72v-494z " />
<glyph unicode="q" horiz-adv-x="1137" d="M55 482q0 124 36 218.5t100.5 153t150.5 87.5t190 29q223 0 456 -135v-1088h137v-206h-605v206h208v252q-75 -39 -207 -39q-209 0 -337.5 141.5t-128.5 380.5zM318 482q0 -144 58.5 -230.5t166.5 -86.5q109 0 185 32v511q-8 6 -22 14.5t-61.5 22.5t-99.5 14 q-227 0 -227 -277z" />
<glyph unicode="r" horiz-adv-x="889" d="M14 741l67 209l302 -102q3 2 29 18.5t43.5 26t51.5 26t63.5 26.5t70 17.5t79.5 7.5q62 0 109 -13l50 -296l-215 -44l-27 107q-42 -6 -92 -27.5t-74 -45.5v-444h198v-207h-632v207h174v469z" />
<glyph unicode="s" horiz-adv-x="950" d="M59 245l207 33l17 -79q92 -29 209 -29q146 0 146 90q0 33 -24.5 55.5t-73.5 26.5l-145 13q-328 33 -328 315q0 140 108.5 219.5t305.5 79.5q173 0 350 -75l32 -201l-213 -33l-16 74q-65 25 -139 25q-106 0 -157 -18.5t-51 -59.5t24 -60t78 -25l199 -20 q153 -17 227.5 -90.5t74.5 -210.5q0 -155 -103 -235t-291 -80q-111 0 -222 19t-186 49z" />
<glyph unicode="t" horiz-adv-x="748" d="M8 723v207h170v145l260 59v-204h243v-207h-243v-323q0 -226 109 -226q68 0 134 17l51 -193q-114 -38 -199 -38q-169 0 -262 95.5t-93 285.5v382h-170z" />
<glyph unicode="u" horiz-adv-x="1260" d="M20 723v207h416v-546q0 -95 35.5 -144t130.5 -49q42 0 94 12.5t83 24.5l31 12v483h-155v207h415v-688l179 -62l-72 -225l-278 90q-152 -85 -307 -85q-220 0 -318.5 95.5t-98.5 295.5v372h-155z" />
<glyph unicode="v" horiz-adv-x="1219" d="M4 930h523v-207h-116l125 -302l74 -196l75 196l128 302h-120v207h520v-207h-129l-331 -723h-282l-323 723h-142z" />
<glyph unicode="w" horiz-adv-x="1683" d="M14 723v207h504v-207h-111l89 -302l58 -221l52 221l112 371h269l114 -371l52 -222l55 222l85 302h-130v207h504v-207h-116l-275 -723h-276l-149 529l-170 -529h-292l-257 723h-118z" />
<glyph unicode="x" horiz-adv-x="1288" d="M57 0v207h173l247 272l-255 244h-165v207h520v-207h-60l119 -130l125 130h-72v207h493v-207h-155l-234 -262l267 -254h157v-207h-523v207h83l-143 144l-137 -144h80v-207h-520z" />
<glyph unicode="y" horiz-adv-x="1233" d="M-14 723v207h526v-207h-92l199 -552l178 552h-82v207h509v-207h-171l-329 -943q-54 -154 -144.5 -220.5t-228.5 -66.5q-30 0 -74.5 10.5t-74.5 20.5t-30 11l48 202q86 -28 150 -28q71 0 127 154q-292 724 -348 860h-163z" />
<glyph unicode="z" horiz-adv-x="997" d="M45 650l56 280h789v-170l-470 -553h282l27 129l231 -43l-61 -293h-818v177l464 546h-245l-25 -119z" />
<glyph unicode="{" horiz-adv-x="631" d="M31 423v197h99q31 0 43 39.5t12 121.5v160q0 369 379 395l30 -223q-112 -13 -149 -57.5t-37 -147.5v-208q0 -126 -133 -178q133 -54 133 -179v-208q0 -103 37 -147.5t149 -57.5l-30 -223q-379 26 -379 395v160q0 99 -12 130t-43 31h-99z" />
<glyph unicode="|" horiz-adv-x="459" d="M106 -462v1800h245v-1800h-245z" />
<glyph unicode="}" horiz-adv-x="633" d="M39 -70q112 13 149 57.5t37 147.5v208q0 125 133 179q-133 52 -133 178v208q0 103 -37 147.5t-149 57.5l30 223q379 -26 379 -395v-160q0 -82 12 -121.5t43 -39.5h99v-197h-99q-31 0 -43 -31t-12 -130v-160q0 -369 -379 -395z" />
<glyph unicode="~" horiz-adv-x="1057" d="M113 437q34 39 61 65.5t65 56t79 44.5t85 15q53 0 160.5 -50.5t133.5 -50.5q55 0 136 92l122 -122q-90 -99 -148.5 -140.5t-126.5 -41.5q-29 0 -127.5 48t-141.5 48q-28 0 -62.5 -22.5t-92.5 -74.5z" />
<glyph unicode="&#xa1;" horiz-adv-x="463" d="M78 744q0 36 14 68t38.5 56t56.5 38.5t68 14.5q35 0 67 -14.5t56.5 -39.5t39 -57t14.5 -66q0 -35 -14.5 -67t-39 -56.5t-56.5 -39t-67 -14.5q-36 0 -68.5 14t-56.5 38.5t-38 56.5t-14 68zM104 -375l50 840h197l58 -840h-305z" />
<glyph unicode="&#xa2;" horiz-adv-x="999" d="M76 586q0 213 102.5 343t280.5 162v160h182v-153q79 -5 152 -20.5t106 -32.5l56 -282l-218 -46l-31 157q-17 4 -65 10v-579q129 28 223 99l105 -154q0 -4 -41 -34.5t-123 -69t-164 -50.5v-141h-182v145q-179 31 -281 155.5t-102 330.5zM320 586q0 -218 139 -273v559 q-139 -57 -139 -286z" />
<glyph unicode="&#xa3;" horiz-adv-x="1094" d="M55 102q39 26 79 56.5t73 68.5t53.5 85t20.5 105q0 46 -6 94h-200v222h168q-2 44 -3.5 79t-1.5 63q0 99 33.5 170t89.5 116.5t128.5 67.5t150.5 22q82 0 164.5 -23t152.5 -67l47 -273l-224 -31l-25 171q-61 26 -121 26q-31 0 -58.5 -8.5t-48.5 -26t-33 -45t-12 -65.5 q0 -25 1.5 -69t5.5 -107h252v-222h-236v-103q0 -93 -102 -210l5 -6q48 17 91 17q11 0 33 -3.5t48.5 -8.5t55.5 -10.5t56 -10.5t49 -8.5t34 -3.5q27 0 49.5 4.5t44 14.5t45 27t52.5 43l111 -174q-47 -37 -84 -61t-73.5 -38t-78 -19.5t-96.5 -5.5q-62 0 -116.5 12.5t-102 27.5 t-89 27.5t-77.5 12.5q-39 0 -83 -21.5t-113 -68.5z" />
<glyph unicode="&#xa4;" horiz-adv-x="1079" d="M84 222l130 86q-44 80 -44 173q0 95 46 178l-131 89l120 179l172 -119q78 37 167 37q91 0 163 -35l170 116l120 -177l-125 -85q50 -85 50 -183q0 -101 -46 -177l123 -80l-121 -179l-168 110q-75 -35 -166 -35q-93 0 -169 36l-170 -113zM368 481q0 -74 51.5 -126 t124.5 -52q75 0 126 52t51 126q0 75 -51.5 128t-125.5 53q-73 0 -124.5 -53t-51.5 -128z" />
<glyph unicode="&#xa5;" horiz-adv-x="1307" d="M-14 977v229h582v-229h-120l224 -309l216 309h-108v229h543v-229h-168l-262 -367h189v-135h-286v-1v-56h286v-136h-286v-55h192v-227h-647v227h195v55h-287v136h287v56l-1 1h-286v135h180l-286 367h-157z" />
<glyph unicode="&#xa6;" horiz-adv-x="471" d="M115 315h244v-773h-244v773zM115 594v793h244v-793h-244z" />
<glyph unicode="&#xa7;" horiz-adv-x="999" d="M80 983q0 136 110.5 220t303.5 84q215 0 357 -101l43 -212l-220 -45l-29 146q-50 22 -130 22q-75 0 -130.5 -21.5t-55.5 -62.5q0 -30 12.5 -50.5t55.5 -43.5t124 -47q71 -21 110 -33.5t89.5 -31.5t75.5 -34.5t54 -39t42 -49.5t21.5 -61t8.5 -78q0 -56 -48 -115t-143 -108 q198 -77 198 -228q0 -100 -63.5 -175t-156.5 -110.5t-198 -35.5q-243 0 -382 118l-37 205l208 40l26 -130q83 -35 173 -35q69 0 128.5 19.5t59.5 56.5q0 33 -16.5 52t-71.5 41t-174 54q-60 16 -104 32t-90.5 43t-75 60t-47 81.5t-18.5 109.5q0 67 51.5 126.5t159.5 88.5 q-89 30 -155 100t-66 148zM311 533q0 -52 67 -90.5t204 -69.5q48 32 78 71t30 74q0 43 -73 84.5t-190 69.5q-61 -21 -88.5 -54.5t-27.5 -84.5z" />
<glyph unicode="&#xa8;" horiz-adv-x="723" d="M84 1247q0 60 44.5 104.5t105.5 44.5q60 0 104.5 -44.5t44.5 -104.5q0 -61 -44.5 -105.5t-104.5 -44.5q-62 0 -106 44.5t-44 105.5zM443 1247q0 60 44 104.5t106 44.5q60 0 104.5 -44.5t44.5 -104.5q0 -61 -44.5 -105.5t-104.5 -44.5q-62 0 -106 44t-44 106z" />
<glyph unicode="&#xa9;" horiz-adv-x="1657" d="M45 600q0 226 101 405.5t280 279.5t404 100q168 0 312.5 -58.5t247 -161.5t161 -249t58.5 -316q0 -166 -58.5 -310.5t-161 -247.5t-247.5 -162t-312 -59q-168 0 -314 59t-249.5 162t-162.5 247.5t-59 310.5zM248 589q0 -117 40.5 -222t115 -183.5t180.5 -124.5t238 -46 q127 0 234 45t185 123t121.5 183t43.5 225q0 123 -42 232.5t-119 192t-184.5 131t-238.5 48.5q-126 0 -231 -46t-181.5 -127t-119 -191.5t-42.5 -239.5zM413 614q0 207 116.5 323t314.5 116q49 0 96 -8t79 -20t57 -23.5t37 -19.5l12 -8l39 -205l-160 -47l-41 152 q-60 15 -117 15q-110 0 -169 -71t-59 -204q0 -135 60.5 -211.5t167.5 -76.5q64 0 120 17l34 136l170 -50l-49 -205q-13 -8 -36.5 -19t-95.5 -29.5t-143 -18.5q-198 0 -315.5 115.5t-117.5 341.5z" />
<glyph unicode="&#xaa;" horiz-adv-x="788" d="M61 501q0 56 20.5 95t58.5 59.5t82.5 29t103.5 8.5h139q0 66 -24.5 102.5t-90.5 36.5q-56 0 -96 -13l-14 -68l-155 31l28 142q126 46 234 46q88 0 148 -19t92.5 -57t46 -85t13.5 -111v-219l112 -36l-51 -153l-175 60q-96 -57 -198 -57q-127 0 -200.5 56.5t-73.5 151.5z M248 504q0 -29 27.5 -48.5t65.5 -19.5q53 0 124 43v85h-136q-81 0 -81 -60z" />
<glyph unicode="&#xab;" horiz-adv-x="801" d="M57 444v4l1 -2zM58 446l315 478l167 -120l-238 -360l238 -356l-167 -120zM475 446l173 304l145 -123l-108 -184l108 -178l-145 -123z" />
<glyph unicode="&#xac;" horiz-adv-x="1165" d="M66 526v207h1036v-521h-260v314h-776z" />
<glyph unicode="&#xad;" horiz-adv-x="850" d="M109 451v234h633v-234h-633z" />
<glyph unicode="&#xae;" horiz-adv-x="1290" d="M68 702q0 122 45 226.5t123 181t183.5 119.5t226.5 43q82 0 157 -20t139 -57t116 -89t88.5 -116.5t56.5 -139.5t20 -157q0 -119 -41.5 -224t-117.5 -183t-182.5 -123.5t-235.5 -45.5q-125 0 -231 43.5t-183 121t-120.5 185t-43.5 235.5zM234 684q0 -177 113 -294 t297 -117q183 0 298 117.5t115 293.5q0 184 -115 306.5t-298 122.5q-184 0 -297 -122t-113 -307zM412 424v112h71v314h-71v112h237q114 0 168 -44t54 -134q0 -60 -19.5 -95.5t-68.5 -60.5l46 -92h94v-112h-161l-84 182h-68v-70h42v-112h-240zM612 707h36q49 0 71 14.5 t22 55.5q0 44 -21.5 58.5t-71.5 14.5h-36v-143z" />
<glyph unicode="&#xaf;" horiz-adv-x="750" d="M24 977v229h712v-229h-712z" />
<glyph unicode="&#xb0;" horiz-adv-x="639" d="M76 1026q0 57 19.5 102.5t53 77.5t77.5 49t93 17q50 0 94.5 -17t77.5 -49t52.5 -77.5t19.5 -102.5q0 -56 -19 -101.5t-52 -77t-77.5 -48.5t-95.5 -17q-50 0 -94 17t-77 48.5t-52.5 76.5t-19.5 102zM206 1026q0 -63 33 -97.5t81 -34.5q49 0 80.5 34t31.5 98t-31.5 99.5 t-80.5 35.5q-48 0 -81 -36t-33 -99z" />
<glyph unicode="&#xb1;" horiz-adv-x="952" d="M66 124v212h822v-212h-822zM66 715v212h283v254h235v-254h304v-212h-304v-275h-235v275h-283z" />
<glyph unicode="&#xb2;" horiz-adv-x="809" d="M114 1123l7 7q7 7 21.5 18.5t33.5 25t44.5 27t53 25t61 18.5t66.5 7q128 0 202 -58.5t74 -162.5q0 -78 -30 -127t-114 -108l-169 -119h193l57 87l139 -80l-108 -177h-478l-39 172l293 222q79 62 79 119q0 41 -21.5 62t-74.5 21q-37 0 -80.5 -23.5t-67.5 -46.5l-25 -24z " />
<glyph unicode="&#xb3;" horiz-adv-x="776" d="M57 1113q65 70 134 104t175 34q53 0 98 -11t83 -34t60 -63.5t22 -95.5q0 -117 -92 -165q67 -26 94.5 -60t27.5 -94q0 -105 -81 -171t-243 -66q-81 0 -142 24t-135 90l107 125q88 -84 174 -84q59 0 93.5 25t34.5 63q0 46 -34 62t-116 16h-36v121h56q61 0 89 16.5t28 60.5 q0 90 -87 90q-62 0 -103 -20t-94 -75z" />
<glyph unicode="&#xb4;" horiz-adv-x="791" d="M82 1148l436 329l116 -220l-483 -217z" />
<glyph unicode="&#xb5;" horiz-adv-x="1234" d="M140 930h261v-546q0 -95 36 -144t131 -49q42 0 94 12.5t83 24.5l31 12v690h260v-688l179 -62l-72 -225l-278 90q-152 -85 -307 -85q-122 0 -209 31q1 -138 41 -185.5t129 -47.5q21 0 56.5 8t60.5 16l24 9l45 -212q-110 -38 -206 -38q-358 0 -358 433z" />
<glyph unicode="&#xb6;" horiz-adv-x="1214" d="M63 867q0 153 89 246t247 93h769v-216h-188v-774h180v-216h-400v990h-97v-990h-408v216h199v330q-215 0 -303 77.5t-88 243.5z" />
<glyph unicode="&#xb7;" horiz-adv-x="530" d="M89 451q0 72 52 124.5t125 52.5q71 0 123.5 -52.5t52.5 -124.5q0 -73 -52.5 -125t-123.5 -52q-74 0 -125.5 52t-51.5 125z" />
<glyph unicode="&#xb8;" horiz-adv-x="584" d="M33 -392l75 108q91 -62 194 -62q79 0 79 82q0 27 -22.5 46.5t-76.5 19.5h-133v198h159v-96q140 4 206.5 -39t66.5 -142q0 -106 -78.5 -159t-198.5 -53q-130 0 -271 97z" />
<glyph unicode="&#xb9;" horiz-adv-x="665" d="M34 1011l283 240h117v-582h168v-163h-533v163h185v233l11 78l-125 -101z" />
<glyph unicode="&#xba;" horiz-adv-x="780" d="M70 637q0 156 88 244.5t231 88.5q147 0 234.5 -88t87.5 -245q0 -145 -86.5 -237.5t-235.5 -92.5q-142 0 -230.5 88t-88.5 242zM273 637q0 -73 30 -116t88 -43q56 0 87 43.5t31 115.5q0 74 -31 118t-87 44q-58 0 -88 -43.5t-30 -118.5z" />
<glyph unicode="&#xbb;" horiz-adv-x="801" d="M6 265l108 178l-108 184l145 123l173 -304l-173 -304zM259 88l238 356l-238 360l167 120l314 -478l-314 -478zM740 446l2 2v-4z" />
<glyph unicode="&#xbc;" horiz-adv-x="1690" d="M64 1011l283 240h117v-582h168v-163h-533v163h185v233l11 78l-125 -101zM498 -45l548 1323h192l-546 -1323h-194zM1023 170v128l235 483l146 -80l-164 -368h191v297h180v-297h98v-163h-98v-169h-180v169h-408z" />
<glyph unicode="&#xbd;" horiz-adv-x="1703" d="M64 1011l283 240h117v-582h168v-163h-533v163h185v233l11 78l-125 -101zM498 -45l548 1323h192l-546 -1323h-194zM1084 617l7 7q7 7 21.5 18.5t33.5 25t44.5 27t53 25t61 18.5t66.5 7q128 0 202 -58.5t74 -162.5q0 -78 -30 -127t-114 -108l-169 -119h193l57 87l139 -80 l-108 -177h-478l-39 172l293 222q79 62 79 119q0 41 -21.5 62t-74.5 21q-37 0 -80.5 -23.5t-67.5 -46.5l-25 -24z" />
<glyph unicode="&#xbe;" horiz-adv-x="1616" d="M67 1113q65 70 134 104t175 34q53 0 98 -11t83 -34t60 -63.5t22 -95.5q0 -117 -92 -165q67 -26 94.5 -60t27.5 -94q0 -105 -81 -171t-243 -66q-81 0 -142 24t-135 90l107 125q88 -84 174 -84q59 0 93.5 25t34.5 63q0 46 -34 62t-116 16h-36v121h56q61 0 89 16.5t28 60.5 q0 90 -87 90q-62 0 -103 -20t-94 -75zM498 -45l548 1323h192l-546 -1323h-194zM1023 170v128l235 483l146 -80l-164 -368h191v297h180v-297h98v-163h-98v-169h-180v169h-408z" />
<glyph unicode="&#xbf;" horiz-adv-x="864" d="M35 -119q0 91 41.5 147.5t141.5 108.5q120 62 152.5 89.5t32.5 65.5q0 31 -35 81l152 72q47 -46 67.5 -89t20.5 -107q0 -80 -47.5 -127t-192.5 -123q-53 -28 -76 -52.5t-23 -67.5q0 -54 37.5 -85.5t105.5 -31.5q89 0 172 31l24 167l207 -22l-29 -269q-5 -4 -14.5 -10.5 t-43 -23t-71 -29t-98.5 -23t-127 -10.5q-112 0 -192 24.5t-123 68.5t-62.5 97t-19.5 118zM250 692q0 35 14.5 67t39 56.5t56.5 39t67 14.5q36 0 68 -14.5t56.5 -38.5t38.5 -56t14 -68t-14 -68t-38 -56.5t-56.5 -38.5t-68.5 -14q-35 0 -67 14.5t-56.5 39t-39 56.5t-14.5 67z " />
<glyph unicode="&#xc0;" horiz-adv-x="1328" d="M8 0v229h202l259 748h-161v229h493l337 -977h180v-229h-543v229h100l-51 174h-331l-53 -174h111v-229h-543zM270 1533l116 220l436 -329l-69 -108zM543 572h232l-114 390z" />
<glyph unicode="&#xc1;" horiz-adv-x="1328" d="M8 0v229h202l259 748h-161v229h493l337 -977h180v-229h-543v229h100l-51 174h-331l-53 -174h111v-229h-543zM419 1424l436 329l116 -220l-483 -217zM543 572h232l-114 390z" />
<glyph unicode="&#xc2;" horiz-adv-x="1328" d="M8 0v229h202l259 748h-161v229h493l337 -977h180v-229h-543v229h100l-51 174h-331l-53 -174h111v-229h-543zM237 1441l361 319l363 -319l-102 -117l-260 206l-270 -206zM543 572h232l-114 390z" />
<glyph unicode="&#xc3;" horiz-adv-x="1328" d="M8 0v229h202l259 748h-161v229h493l337 -977h180v-229h-543v229h100l-51 174h-331l-53 -174h111v-229h-543zM175 1483q144 175 270 190q33 4 77.5 -11t80.5 -34.5t77 -34t69 -10.5q37 6 67 28t73 69l124 -99q-73 -90 -134 -135t-128 -51q-37 -3 -99 24t-118 50.5 t-87 13.5q-19 -6 -42.5 -25t-36.5 -32.5t-48 -51.5zM543 572h232l-114 390z" />
<glyph unicode="&#xc4;" horiz-adv-x="1328" d="M8 0v229h202l259 748h-161v229h493l337 -977h180v-229h-543v229h100l-51 174h-331l-53 -174h111v-229h-543zM285 1523q0 60 44.5 104.5t105.5 44.5q60 0 104.5 -44.5t44.5 -104.5q0 -61 -44.5 -105.5t-104.5 -44.5q-62 0 -106 44.5t-44 105.5zM543 572h232l-114 390z M644 1523q0 60 44 104.5t106 44.5q60 0 104.5 -44.5t44.5 -104.5q0 -61 -44.5 -105.5t-104.5 -44.5q-62 0 -106 44t-44 106z" />
<glyph unicode="&#xc5;" horiz-adv-x="1328" d="M8 0v229h202l259 748h-161v229h493l337 -977h180v-229h-543v229h100l-51 174h-331l-53 -174h111v-229h-543zM388 1522q0 46 18 87.5t49 72t72 48.5t87 18q45 0 86 -18.5t72 -49.5t49.5 -72t18.5 -86q0 -46 -18.5 -87t-49.5 -72t-72 -49t-86 -18q-47 0 -88 18t-71.5 48.5 t-48.5 71.5t-18 88zM506 1522q0 -46 31 -77t77 -31q22 0 41.5 8.5t34.5 23t23.5 34t8.5 42.5q0 22 -8.5 41.5t-23.5 34.5t-34.5 23.5t-41.5 8.5q-45 0 -77 -32q-31 -31 -31 -76zM543 572h232l-114 390z" />
<glyph unicode="&#xc6;" horiz-adv-x="1851" d="M8 0v229h189l453 748h-184v229h1181l127 -379l-218 -74l-74 224h-341v-252h333v-227h-333v-269h395l72 202l216 -76l-123 -355h-993v229h169v133h-350l-77 -133h103v-229h-545zM656 589h221v388z" />
<glyph unicode="&#xc7;" horiz-adv-x="1202" d="M61 607q0 302 171 473t459 171q71 0 138.5 -11t114 -27t82.5 -32t70 -38l61 -308l-224 -48l-45 210q1 1 -28 9.5t-78 16.5t-89 8q-173 0 -265.5 -109.5t-92.5 -314.5q0 -209 93.5 -320t264.5 -111q45 0 94 13t102 38l45 185l222 -51l-67 -309q-6 -4 -17.5 -10t-50 -22 t-79.5 -28.5t-103 -23.5t-124 -13v-51q140 4 206.5 -39t66.5 -142q0 -106 -78.5 -159t-198.5 -53q-130 0 -271 97l75 108q91 -62 194 -62q79 0 79 82q0 27 -22.5 46.5t-76.5 19.5h-133v163q-233 35 -364 195t-131 447z" />
<glyph unicode="&#xc8;" horiz-adv-x="1225" d="M83 0v229h168v748h-166v229h937l127 -379l-218 -74l-74 224h-342v-252h334v-227h-334v-269h396l72 202l216 -76l-123 -355h-993zM298 1533l116 220l436 -329l-69 -108z" />
<glyph unicode="&#xc9;" horiz-adv-x="1225" d="M83 0v229h168v748h-166v229h937l127 -379l-218 -74l-74 224h-342v-252h334v-227h-334v-269h396l72 202l216 -76l-123 -355h-993zM387 1424l436 329l116 -220l-483 -217z" />
<glyph unicode="&#xca;" horiz-adv-x="1225" d="M83 0v229h168v748h-166v229h937l127 -379l-218 -74l-74 224h-342v-252h334v-227h-334v-269h396l72 202l216 -76l-123 -355h-993zM226 1441l361 319l363 -319l-102 -117l-260 206l-270 -206z" />
<glyph unicode="&#xcb;" horiz-adv-x="1225" d="M83 0v229h168v748h-166v229h937l127 -379l-218 -74l-74 224h-342v-252h334v-227h-334v-269h396l72 202l216 -76l-123 -355h-993zM293 1523q0 60 44.5 104.5t105.5 44.5q60 0 104.5 -44.5t44.5 -104.5q0 -61 -44.5 -105.5t-104.5 -44.5q-62 0 -106 44.5t-44 105.5z M652 1523q0 60 44 104.5t106 44.5q60 0 104.5 -44.5t44.5 -104.5q0 -61 -44.5 -105.5t-104.5 -44.5q-62 0 -106 44t-44 106z" />
<glyph unicode="&#xcc;" horiz-adv-x="821" d="M77 1533l116 220l436 -329l-69 -108zM83 0v229h197v748h-195v229h653v-229h-194v-748h194v-229h-655z" />
<glyph unicode="&#xcd;" horiz-adv-x="821" d="M83 0v229h197v748h-195v229h653v-229h-194v-748h194v-229h-655zM155 1424l436 329l116 -220l-483 -217z" />
<glyph unicode="&#xce;" horiz-adv-x="821" d="M44 1441l361 319l363 -319l-102 -117l-260 206l-270 -206zM83 0v229h197v748h-195v229h653v-229h-194v-748h194v-229h-655z" />
<glyph unicode="&#xcf;" horiz-adv-x="821" d="M83 0v229h197v748h-195v229h653v-229h-194v-748h194v-229h-655zM89 1523q0 60 44.5 104.5t105.5 44.5q60 0 104.5 -44.5t44.5 -104.5q0 -61 -44.5 -105.5t-104.5 -44.5q-62 0 -106 44.5t-44 105.5zM448 1523q0 60 44 104.5t106 44.5q60 0 104.5 -44.5t44.5 -104.5 q0 -61 -44.5 -105.5t-104.5 -44.5q-62 0 -106 44t-44 106z" />
<glyph unicode="&#xd0;" horiz-adv-x="1362" d="M84 977v229h567q154 0 271 -34t203.5 -107t131.5 -195t45 -290q0 -129 -31 -228.5t-86 -165t-136 -108t-174.5 -60.5t-207.5 -18h-582v229h166v280h-166v228h166v240h-167zM515 229h115q110 0 179.5 14t121.5 51.5t74.5 106t22.5 176.5q0 220 -90 310t-287 90h-136v-240 h185v-228h-185v-280z" />
<glyph unicode="&#xd1;" horiz-adv-x="1537" d="M76 0v229h170v748h-168v229h556l406 -834v605h-151v229h572v-229h-191v-977h-301l-493 978v-749h172v-229h-572zM358 1483q144 175 270 190q33 4 77.5 -11t80.5 -34.5t77 -34t69 -10.5q37 6 67 28t73 69l124 -99q-73 -90 -134 -135t-128 -51q-37 -3 -99 24t-118 50.5 t-87 13.5q-19 -6 -42.5 -25t-36.5 -32.5t-48 -51.5z" />
<glyph unicode="&#xd2;" horiz-adv-x="1344" d="M61 604q0 157 45 278t126 203t192.5 124t245.5 42q135 0 247.5 -42t194 -124t126.5 -203t45 -278q0 -153 -43.5 -274t-123.5 -204t-193 -127t-251 -44q-134 0 -246 42.5t-193 124.5t-126.5 203t-45.5 279zM328 1533l116 220l436 -329l-69 -108zM335 604q0 -210 84 -318.5 t253 -108.5q168 0 252.5 108t84.5 319q0 212 -84 319t-253 107q-168 0 -252.5 -107.5t-84.5 -318.5z" />
<glyph unicode="&#xd3;" horiz-adv-x="1344" d="M61 604q0 157 45 278t126 203t192.5 124t245.5 42q135 0 247.5 -42t194 -124t126.5 -203t45 -278q0 -153 -43.5 -274t-123.5 -204t-193 -127t-251 -44q-134 0 -246 42.5t-193 124.5t-126.5 203t-45.5 279zM335 604q0 -210 84 -318.5t253 -108.5q168 0 252.5 108t84.5 319 q0 212 -84 319t-253 107q-168 0 -252.5 -107.5t-84.5 -318.5zM477 1424l436 329l116 -220l-483 -217z" />
<glyph unicode="&#xd4;" horiz-adv-x="1344" d="M61 604q0 157 45 278t126 203t192.5 124t245.5 42q135 0 247.5 -42t194 -124t126.5 -203t45 -278q0 -153 -43.5 -274t-123.5 -204t-193 -127t-251 -44q-134 0 -246 42.5t-193 124.5t-126.5 203t-45.5 279zM326 1441l361 319l363 -319l-102 -117l-260 206l-270 -206z M335 604q0 -210 84 -318.5t253 -108.5q168 0 252.5 108t84.5 319q0 212 -84 319t-253 107q-168 0 -252.5 -107.5t-84.5 -318.5z" />
<glyph unicode="&#xd5;" horiz-adv-x="1344" d="M61 604q0 157 45 278t126 203t192.5 124t245.5 42q135 0 247.5 -42t194 -124t126.5 -203t45 -278q0 -153 -43.5 -274t-123.5 -204t-193 -127t-251 -44q-134 0 -246 42.5t-193 124.5t-126.5 203t-45.5 279zM273 1483q144 175 270 190q33 4 77.5 -11t80.5 -34.5t77 -34 t69 -10.5q37 6 67 28t73 69l124 -99q-73 -90 -134 -135t-128 -51q-37 -3 -99 24t-118 50.5t-87 13.5q-19 -6 -42.5 -25t-36.5 -32.5t-48 -51.5zM335 604q0 -210 84 -318.5t253 -108.5q168 0 252.5 108t84.5 319q0 212 -84 319t-253 107q-168 0 -252.5 -107.5t-84.5 -318.5z " />
<glyph unicode="&#xd6;" horiz-adv-x="1344" d="M61 604q0 157 45 278t126 203t192.5 124t245.5 42q135 0 247.5 -42t194 -124t126.5 -203t45 -278q0 -153 -43.5 -274t-123.5 -204t-193 -127t-251 -44q-134 0 -246 42.5t-193 124.5t-126.5 203t-45.5 279zM335 604q0 -210 84 -318.5t253 -108.5q168 0 252.5 108t84.5 319 q0 212 -84 319t-253 107q-168 0 -252.5 -107.5t-84.5 -318.5zM363 1523q0 60 44.5 104.5t105.5 44.5q60 0 104.5 -44.5t44.5 -104.5q0 -61 -44.5 -105.5t-104.5 -44.5q-62 0 -106 44.5t-44 105.5zM722 1523q0 60 44 104.5t106 44.5q60 0 104.5 -44.5t44.5 -104.5 q0 -61 -44.5 -105.5t-104.5 -44.5q-62 0 -106 44t-44 106z" />
<glyph unicode="&#xd7;" horiz-adv-x="952" d="M102 820l166 166l208 -208l215 215l150 -150l-215 -215l223 -222l-167 -166l-222 222l-200 -200l-150 150l200 200z" />
<glyph unicode="&#xd8;" horiz-adv-x="1343" d="M61 604q0 155 45 278t126 203.5t192.5 123t245.5 42.5q111 0 209 -29l51 111h215l-91 -198q110 -82 169.5 -216.5t59.5 -314.5q0 -308 -167 -478.5t-444 -170.5q-76 0 -154 16l-51 -112h-216l84 182q-130 78 -202 221.5t-72 341.5zM335 604q0 -234 103 -340l345 751 q-49 15 -111 15q-167 0 -252 -108t-85 -318zM615 180q27 -3 57 -3q167 0 252 108.5t85 318.5q0 184 -66 291z" />
<glyph unicode="&#xd9;" horiz-adv-x="1458" d="M84 977v229h544v-229h-113v-496q0 -156 52 -232t169 -76q124 0 170 81t46 247v476h-113v229h544v-229h-167v-482q0 -135 -28.5 -235t-72.5 -157.5t-110 -91.5t-128.5 -45t-140.5 -11q-53 0 -98 5t-96 20t-91.5 40t-79 66.5t-64 96.5t-41 134.5t-15.5 177.5v482h-167z M425 1533l116 220l436 -329l-69 -108z" />
<glyph unicode="&#xda;" horiz-adv-x="1458" d="M84 977v229h544v-229h-113v-496q0 -156 52 -232t169 -76q124 0 170 81t46 247v476h-113v229h544v-229h-167v-482q0 -135 -28.5 -235t-72.5 -157.5t-110 -91.5t-128.5 -45t-140.5 -11q-53 0 -98 5t-96 20t-91.5 40t-79 66.5t-64 96.5t-41 134.5t-15.5 177.5v482h-167z M504 1424l436 329l116 -220l-483 -217z" />
<glyph unicode="&#xdb;" horiz-adv-x="1458" d="M84 977v229h544v-229h-113v-496q0 -156 52 -232t169 -76q124 0 170 81t46 247v476h-113v229h544v-229h-167v-482q0 -135 -28.5 -235t-72.5 -157.5t-110 -91.5t-128.5 -45t-140.5 -11q-53 0 -98 5t-96 20t-91.5 40t-79 66.5t-64 96.5t-41 134.5t-15.5 177.5v482h-167z M373 1441l361 319l363 -319l-102 -117l-260 206l-270 -206z" />
<glyph unicode="&#xdc;" horiz-adv-x="1458" d="M84 977v229h544v-229h-113v-496q0 -156 52 -232t169 -76q124 0 170 81t46 247v476h-113v229h544v-229h-167v-482q0 -135 -28.5 -235t-72.5 -157.5t-110 -91.5t-128.5 -45t-140.5 -11q-53 0 -98 5t-96 20t-91.5 40t-79 66.5t-64 96.5t-41 134.5t-15.5 177.5v482h-167z M410 1523q0 60 44.5 104.5t105.5 44.5q60 0 104.5 -44.5t44.5 -104.5q0 -61 -44.5 -105.5t-104.5 -44.5q-62 0 -106 44.5t-44 105.5zM769 1523q0 60 44 104.5t106 44.5q60 0 104.5 -44.5t44.5 -104.5q0 -61 -44.5 -105.5t-104.5 -44.5q-62 0 -106 44t-44 106z" />
<glyph unicode="&#xdd;" horiz-adv-x="1379" d="M12 977v229h582v-229h-120l224 -309l216 309h-108v229h543v-229h-168l-359 -503v-247h192v-227h-647v227h195v247l-393 503h-157zM494 1424l436 329l116 -220l-483 -217z" />
<glyph unicode="&#xde;" horiz-adv-x="1171" d="M84 0v229h165v748h-165v229h430v-141h101q182 0 294.5 -41.5t159.5 -116.5t47 -191q0 -196 -116 -283t-385 -87h-102v-117h224v-229h-653zM515 569h98q49 0 81.5 2.5t62.5 11.5t47.5 24t27.5 41t10 63q0 76 -54 101t-175 25h-98v-268z" />
<glyph unicode="&#xdf;" horiz-adv-x="1237" d="M14 0v229h172v473h-172v228h172q0 228 97 331.5t319 103.5q188 0 298 -87t110 -225q0 -54 -18.5 -99t-47 -73t-61 -54t-61 -44.5t-47 -43t-18.5 -51.5q0 -40 27.5 -68.5t109.5 -67.5q236 -112 236 -285q0 -142 -98 -222t-242 -80q-162 0 -257 84q-5 4 -9.5 8.5t-9.5 10.5 l-33 177l195 40l18 -103q34 -26 95 -26q53 0 78.5 27.5t25.5 61.5q0 85 -143 153q-129 61 -177.5 115.5t-48.5 150.5q0 52 19 96t47.5 72t62 56t62 49.5t47.5 51.5t19 64q0 56 -44.5 88.5t-123.5 32.5q-45 0 -77 -13t-49.5 -32.5t-26.5 -53t-11.5 -63.5t-2.5 -76v-936h-432z " />
<glyph unicode="&#xe0;" horiz-adv-x="1089" d="M52 252q0 293 390 293h215q0 48 -2.5 76t-12 60t-29 48.5t-54.5 28t-86 11.5q-83 0 -154 -25l-9 -89l-219 27l39 229q163 60 343 60q91 0 162 -14.5t117.5 -35t78.5 -58t48.5 -68.5t25 -82t10 -82t1.5 -85v-334l166 -53l-71 -213l-260 88q-141 -74 -296 -74 q-189 0 -296 77t-107 215zM150 1257l116 220l436 -329l-69 -108zM316 265q0 -58 38.5 -87.5t108.5 -29.5q107 0 194 53v165h-210q-68 0 -99.5 -20.5t-31.5 -80.5z" />
<glyph unicode="&#xe1;" horiz-adv-x="1089" d="M52 252q0 293 390 293h215q0 48 -2.5 76t-12 60t-29 48.5t-54.5 28t-86 11.5q-83 0 -154 -25l-9 -89l-219 27l39 229q163 60 343 60q91 0 162 -14.5t117.5 -35t78.5 -58t48.5 -68.5t25 -82t10 -82t1.5 -85v-334l166 -53l-71 -213l-260 88q-141 -74 -296 -74 q-189 0 -296 77t-107 215zM259 1148l436 329l116 -220l-483 -217zM316 265q0 -58 38.5 -87.5t108.5 -29.5q107 0 194 53v165h-210q-68 0 -99.5 -20.5t-31.5 -80.5z" />
<glyph unicode="&#xe2;" horiz-adv-x="1089" d="M52 252q0 293 390 293h215q0 48 -2.5 76t-12 60t-29 48.5t-54.5 28t-86 11.5q-83 0 -154 -25l-9 -89l-219 27l39 229q163 60 343 60q91 0 162 -14.5t117.5 -35t78.5 -58t48.5 -68.5t25 -82t10 -82t1.5 -85v-334l166 -53l-71 -213l-260 88q-141 -74 -296 -74 q-189 0 -296 77t-107 215zM138 1165l361 319l363 -319l-102 -117l-260 206l-270 -206zM316 265q0 -58 38.5 -87.5t108.5 -29.5q107 0 194 53v165h-210q-68 0 -99.5 -20.5t-31.5 -80.5z" />
<glyph unicode="&#xe3;" horiz-adv-x="1089" d="M52 252q0 293 390 293h215q0 48 -2.5 76t-12 60t-29 48.5t-54.5 28t-86 11.5q-83 0 -154 -25l-9 -89l-219 27l39 229q163 60 343 60q91 0 162 -14.5t117.5 -35t78.5 -58t48.5 -68.5t25 -82t10 -82t1.5 -85v-334l166 -53l-71 -213l-260 88q-141 -74 -296 -74 q-189 0 -296 77t-107 215zM57 1207q144 175 270 190q33 4 77.5 -11t80.5 -34.5t77 -34t69 -10.5q37 6 67 28t73 69l124 -99q-73 -90 -134 -135t-128 -51q-37 -3 -99 24t-118 50.5t-87 13.5q-19 -6 -42.5 -25t-36.5 -32.5t-48 -51.5zM316 265q0 -58 38.5 -87.5t108.5 -29.5 q107 0 194 53v165h-210q-68 0 -99.5 -20.5t-31.5 -80.5z" />
<glyph unicode="&#xe4;" horiz-adv-x="1089" d="M52 252q0 293 390 293h215q0 48 -2.5 76t-12 60t-29 48.5t-54.5 28t-86 11.5q-83 0 -154 -25l-9 -89l-219 27l39 229q163 60 343 60q91 0 162 -14.5t117.5 -35t78.5 -58t48.5 -68.5t25 -82t10 -82t1.5 -85v-334l166 -53l-71 -213l-260 88q-141 -74 -296 -74 q-189 0 -296 77t-107 215zM155 1247q0 60 44.5 104.5t105.5 44.5q60 0 104.5 -44.5t44.5 -104.5q0 -61 -44.5 -105.5t-104.5 -44.5q-62 0 -106 44.5t-44 105.5zM316 265q0 -58 38.5 -87.5t108.5 -29.5q107 0 194 53v165h-210q-68 0 -99.5 -20.5t-31.5 -80.5zM514 1247 q0 60 44 104.5t106 44.5q60 0 104.5 -44.5t44.5 -104.5q0 -61 -44.5 -105.5t-104.5 -44.5q-62 0 -106 44t-44 106z" />
<glyph unicode="&#xe5;" horiz-adv-x="1089" d="M52 252q0 293 390 293h215q0 48 -2.5 76t-12 60t-29 48.5t-54.5 28t-86 11.5q-83 0 -154 -25l-9 -89l-219 27l39 229q163 60 343 60q91 0 162 -14.5t117.5 -35t78.5 -58t48.5 -68.5t25 -82t10 -82t1.5 -85v-334l166 -53l-71 -213l-260 88q-141 -74 -296 -74 q-189 0 -296 77t-107 215zM258 1246q0 46 18 87.5t49 72t72 48.5t87 18q45 0 86 -18.5t72 -49.5t49.5 -72t18.5 -86q0 -46 -18.5 -87t-49.5 -72t-72 -49t-86 -18q-47 0 -88 18t-71.5 48.5t-48.5 71.5t-18 88zM316 265q0 -58 38.5 -87.5t108.5 -29.5q107 0 194 53v165h-210 q-68 0 -99.5 -20.5t-31.5 -80.5zM376 1246q0 -46 31 -77t77 -31q22 0 41.5 8.5t34.5 23t23.5 34t8.5 42.5q0 22 -8.5 41.5t-23.5 34.5t-34.5 23.5t-41.5 8.5q-45 0 -77 -32q-31 -31 -31 -76z" />
<glyph unicode="&#xe6;" horiz-adv-x="1634" d="M51 252q0 109 53.5 180.5t138 101t198.5 29.5h235q0 35 -6 58.5t-25.5 48t-62.5 36.5t-110 12q-68 0 -148 -11q-3 -13 -9 -49.5t-8 -49.5l-219 41l39 230q173 70 333 70q150 0 234 -46.5t124 -130.5q66 86 151 131.5t177 45.5q208 0 321 -117t113 -345q0 -13 -4 -63.5 t-9 -64.5h-646q17 -96 75 -147.5t152 -51.5q172 0 299 93l112 -143q-3 -5 -17.5 -19.5t-50.5 -39t-81 -45.5t-115.5 -36.5t-148.5 -15.5q-209 0 -340 111q-61 -45 -162.5 -78t-189.5 -33q-188 0 -295.5 80t-107.5 218zM315 255q0 -46 42 -70t105 -24q60 0 134 22.5t110 44.5 q-28 82 -30 126h-230q-57 0 -94 -23t-37 -76zM927 567h419q0 77 -48 124t-150 47q-85 0 -142.5 -44t-78.5 -127z" />
<glyph unicode="&#xe7;" horiz-adv-x="999" d="M55 455q0 246 135.5 380.5t361.5 134.5q93 0 189 -17.5t137 -38.5l56 -282l-218 -46l-31 157q-64 16 -131 16q-116 0 -175.5 -78t-59.5 -226q0 -139 59.5 -214.5t175.5 -75.5q144 0 289 108l105 -154q0 -2 -17 -15.5t-50 -35t-74 -43t-97 -39t-110 -23.5v-59 q140 4 206.5 -39t66.5 -142q0 -106 -78.5 -159t-198.5 -53q-130 0 -271 97l75 108q91 -62 194 -62q79 0 79 82q0 27 -22.5 46.5t-76.5 19.5h-133v167q-179 29 -282.5 154t-103.5 332z" />
<glyph unicode="&#xe8;" horiz-adv-x="1041" d="M55 461q0 121 35.5 215.5t101 160t157 99.5t203.5 34q208 0 321 -119.5t113 -352.5q0 -70 -13 -128h-646q13 -195 227 -195q176 0 332 59l83 -164q-188 -110 -417 -110q-113 0 -205 33t-157 96.5t-100 157t-35 214.5zM186 1257l116 220l436 -329l-69 -108zM333 564h409 q0 190 -188 190q-107 0 -152.5 -45t-68.5 -145z" />
<glyph unicode="&#xe9;" horiz-adv-x="1041" d="M55 461q0 121 35.5 215.5t101 160t157 99.5t203.5 34q208 0 321 -119.5t113 -352.5q0 -70 -13 -128h-646q13 -195 227 -195q176 0 332 59l83 -164q-188 -110 -417 -110q-113 0 -205 33t-157 96.5t-100 157t-35 214.5zM265 1148l436 329l116 -220l-483 -217zM333 564h409 q0 190 -188 190q-107 0 -152.5 -45t-68.5 -145z" />
<glyph unicode="&#xea;" horiz-adv-x="1041" d="M55 461q0 121 35.5 215.5t101 160t157 99.5t203.5 34q208 0 321 -119.5t113 -352.5q0 -70 -13 -128h-646q13 -195 227 -195q176 0 332 59l83 -164q-188 -110 -417 -110q-113 0 -205 33t-157 96.5t-100 157t-35 214.5zM164 1165l361 319l363 -319l-102 -117l-260 206 l-270 -206zM333 564h409q0 190 -188 190q-107 0 -152.5 -45t-68.5 -145z" />
<glyph unicode="&#xeb;" horiz-adv-x="1041" d="M55 461q0 121 35.5 215.5t101 160t157 99.5t203.5 34q208 0 321 -119.5t113 -352.5q0 -70 -13 -128h-646q13 -195 227 -195q176 0 332 59l83 -164q-188 -110 -417 -110q-113 0 -205 33t-157 96.5t-100 157t-35 214.5zM221 1247q0 60 44.5 104.5t105.5 44.5 q60 0 104.5 -44.5t44.5 -104.5q0 -61 -44.5 -105.5t-104.5 -44.5q-62 0 -106 44.5t-44 105.5zM333 564h409q0 190 -188 190q-107 0 -152.5 -45t-68.5 -145zM580 1247q0 60 44 104.5t106 44.5q60 0 104.5 -44.5t44.5 -104.5q0 -61 -44.5 -105.5t-104.5 -44.5q-62 0 -106 44 t-44 106z" />
<glyph unicode="&#xec;" horiz-adv-x="635" d="M-45 1257l116 220l436 -329l-69 -108zM15 0v207h170v516h-170v207h430v-723h170v-207h-600z" />
<glyph unicode="&#xed;" horiz-adv-x="635" d="M15 0v207h170v516h-170v207h430v-723h170v-207h-600zM44 1148l436 329l116 -220l-483 -217z" />
<glyph unicode="&#xee;" horiz-adv-x="635" d="M-87 1165l361 319l363 -319l-102 -117l-260 206l-270 -206zM15 0v207h170v516h-170v207h430v-723h170v-207h-600z" />
<glyph unicode="&#xef;" horiz-adv-x="635" d="M-59 1247q0 60 44.5 104.5t105.5 44.5q60 0 104.5 -44.5t44.5 -104.5q0 -61 -44.5 -105.5t-104.5 -44.5q-62 0 -106 44.5t-44 105.5zM15 0v207h170v516h-170v207h430v-723h170v-207h-600zM300 1247q0 60 44 104.5t106 44.5q60 0 104.5 -44.5t44.5 -104.5 q0 -61 -44.5 -105.5t-104.5 -44.5q-62 0 -106 44t-44 106z" />
<glyph unicode="&#xf0;" horiz-adv-x="1110" d="M43 454q0 96 41.5 178.5t108 135t145.5 82t156 29.5q168 0 236 -48q-83 136 -224 230l-86 -95l-134 122l58 64q-62 30 -163 69l47 156q166 -48 245 -82l95 105l133 -125l-62 -69q189 -110 295 -284t106 -384q0 -155 -38.5 -270t-108 -182t-157.5 -99t-196 -32 q-102 0 -188 27t-157 84t-111.5 156t-40.5 232zM307 436q0 -270 235 -270q80 0 135 49.5t79.5 125.5t24.5 172q0 73 -13 139q-85 49 -211 49q-120 0 -185 -69.5t-65 -195.5z" />
<glyph unicode="&#xf1;" horiz-adv-x="1291" d="M10 739l67 209l289 -99q90 62 172 91.5t201 29.5q97 0 168.5 -30.5t112.5 -86t60 -124.5t18 -153v-369h171v-207h-515v207h85v338q-1 93 -38.5 144.5t-128.5 51.5q-57 0 -114 -20.5t-92 -48.5v-465h80v-207h-515v207h175v464zM256 1207q144 175 270 190q33 4 77.5 -11 t80.5 -34.5t77 -34t69 -10.5q37 6 67 28t73 69l124 -99q-73 -90 -134 -135t-128 -51q-37 -3 -99 24t-118 50.5t-87 13.5q-19 -6 -42.5 -25t-36.5 -32.5t-48 -51.5z" />
<glyph unicode="&#xf2;" d="M55 463q0 121 35.5 215.5t101 159.5t157 98.5t203.5 33.5q115 0 208 -33.5t159 -98.5t102 -159.5t36 -215.5t-35.5 -215t-101.5 -158t-159.5 -97t-208.5 -33q-113 0 -204.5 33t-156.5 97t-100.5 158t-35.5 215zM243 1257l116 220l436 -329l-69 -108zM319 463 q0 -144 59 -221t176 -77q118 0 178.5 77t60.5 221t-60.5 220t-178.5 76q-117 0 -176 -76t-59 -220z" />
<glyph unicode="&#xf3;" d="M55 463q0 121 35.5 215.5t101 159.5t157 98.5t203.5 33.5q115 0 208 -33.5t159 -98.5t102 -159.5t36 -215.5t-35.5 -215t-101.5 -158t-159.5 -97t-208.5 -33q-113 0 -204.5 33t-156.5 97t-100.5 158t-35.5 215zM302 1148l436 329l116 -220l-483 -217zM319 463 q0 -144 59 -221t176 -77q118 0 178.5 77t60.5 221t-60.5 220t-178.5 76q-117 0 -176 -76t-59 -220z" />
<glyph unicode="&#xf4;" d="M55 463q0 121 35.5 215.5t101 159.5t157 98.5t203.5 33.5q115 0 208 -33.5t159 -98.5t102 -159.5t36 -215.5t-35.5 -215t-101.5 -158t-159.5 -97t-208.5 -33q-113 0 -204.5 33t-156.5 97t-100.5 158t-35.5 215zM191 1165l361 319l363 -319l-102 -117l-260 206l-270 -206z M319 463q0 -144 59 -221t176 -77q118 0 178.5 77t60.5 221t-60.5 220t-178.5 76q-117 0 -176 -76t-59 -220z" />
<glyph unicode="&#xf5;" d="M55 463q0 121 35.5 215.5t101 159.5t157 98.5t203.5 33.5q115 0 208 -33.5t159 -98.5t102 -159.5t36 -215.5t-35.5 -215t-101.5 -158t-159.5 -97t-208.5 -33q-113 0 -204.5 33t-156.5 97t-100.5 158t-35.5 215zM148 1207q144 175 270 190q33 4 77.5 -11t80.5 -34.5 t77 -34t69 -10.5q37 6 67 28t73 69l124 -99q-73 -90 -134 -135t-128 -51q-37 -3 -99 24t-118 50.5t-87 13.5q-19 -6 -42.5 -25t-36.5 -32.5t-48 -51.5zM319 463q0 -144 59 -221t176 -77q118 0 178.5 77t60.5 221t-60.5 220t-178.5 76q-117 0 -176 -76t-59 -220z" />
<glyph unicode="&#xf6;" d="M55 463q0 121 35.5 215.5t101 159.5t157 98.5t203.5 33.5q115 0 208 -33.5t159 -98.5t102 -159.5t36 -215.5t-35.5 -215t-101.5 -158t-159.5 -97t-208.5 -33q-113 0 -204.5 33t-156.5 97t-100.5 158t-35.5 215zM238 1247q0 60 44.5 104.5t105.5 44.5q60 0 104.5 -44.5 t44.5 -104.5q0 -61 -44.5 -105.5t-104.5 -44.5q-62 0 -106 44.5t-44 105.5zM319 463q0 -144 59 -221t176 -77q118 0 178.5 77t60.5 221t-60.5 220t-178.5 76q-117 0 -176 -76t-59 -220zM597 1247q0 60 44 104.5t106 44.5q60 0 104.5 -44.5t44.5 -104.5q0 -61 -44.5 -105.5 t-104.5 -44.5q-62 0 -106 44t-44 106z" />
<glyph unicode="&#xf7;" horiz-adv-x="952" d="M66 525v212h822v-212h-822zM315 267q0 34 13.5 64t36 52.5t52.5 35.5t63 13q32 0 61.5 -13.5t52.5 -36.5t37 -53t14 -62q0 -33 -13.5 -62.5t-36.5 -52.5t-52.5 -36.5t-62.5 -13.5t-63 13t-52.5 35.5t-36 52.5t-13.5 64zM315 980q0 34 13.5 64t36 52.5t52.5 35.5t63 13 q32 0 61.5 -13.5t52.5 -36.5t37 -53t14 -62q0 -33 -13.5 -62.5t-36.5 -52.5t-52.5 -36.5t-62.5 -13.5t-63 13t-52.5 35.5t-36 52.5t-13.5 64z" />
<glyph unicode="&#xf8;" d="M55 448q0 238 135.5 369.5t361.5 131.5q57 0 119 -10l35 81h175l-55 -134q110 -60 170.5 -171.5t60.5 -266.5q0 -238 -137 -368.5t-368 -130.5q-52 0 -106 8l-42 -104h-195l68 161q-106 60 -164 170t-58 264zM319 448q0 -134 55 -207l211 495q-20 2 -31 2 q-116 0 -175.5 -75.5t-59.5 -214.5zM530 161q7 -1 24 -1q118 0 178.5 74.5t60.5 213.5q0 136 -59 212z" />
<glyph unicode="&#xf9;" horiz-adv-x="1259" d="M20 723v207h416v-546q0 -95 35.5 -144t130.5 -49q42 0 94 12.5t83 24.5l31 12v483h-155v207h415v-688l179 -62l-72 -225l-278 90q-152 -85 -307 -85q-220 0 -318.5 95.5t-98.5 295.5v372h-155zM295 1257l116 220l436 -329l-69 -108z" />
<glyph unicode="&#xfa;" horiz-adv-x="1259" d="M20 723v207h416v-546q0 -95 35.5 -144t130.5 -49q42 0 94 12.5t83 24.5l31 12v483h-155v207h415v-688l179 -62l-72 -225l-278 90q-152 -85 -307 -85q-220 0 -318.5 95.5t-98.5 295.5v372h-155zM434 1148l436 329l116 -220l-483 -217z" />
<glyph unicode="&#xfb;" horiz-adv-x="1259" d="M20 723v207h416v-546q0 -95 35.5 -144t130.5 -49q42 0 94 12.5t83 24.5l31 12v483h-155v207h415v-688l179 -62l-72 -225l-278 90q-152 -85 -307 -85q-220 0 -318.5 95.5t-98.5 295.5v372h-155zM263 1165l361 319l363 -319l-102 -117l-260 206l-270 -206z" />
<glyph unicode="&#xfc;" horiz-adv-x="1259" d="M20 723v207h416v-546q0 -95 35.5 -144t130.5 -49q42 0 94 12.5t83 24.5l31 12v483h-155v207h415v-688l179 -62l-72 -225l-278 90q-152 -85 -307 -85q-220 0 -318.5 95.5t-98.5 295.5v372h-155zM250 1247q0 60 44.5 104.5t105.5 44.5q60 0 104.5 -44.5t44.5 -104.5 q0 -61 -44.5 -105.5t-104.5 -44.5q-62 0 -106 44.5t-44 105.5zM609 1247q0 60 44 104.5t106 44.5q60 0 104.5 -44.5t44.5 -104.5q0 -61 -44.5 -105.5t-104.5 -44.5q-62 0 -106 44t-44 106z" />
<glyph unicode="&#xfd;" horiz-adv-x="1256" d="M10 723v207h526v-207h-92l199 -552l178 552h-82v207h509v-207h-171l-329 -943q-54 -154 -144.5 -220.5t-228.5 -66.5q-30 0 -74.5 10.5t-74.5 20.5t-30 11l48 202q86 -28 150 -28q71 0 127 154q-292 724 -348 860h-163zM453 1148l436 329l116 -220l-483 -217z" />
<glyph unicode="&#xfe;" horiz-adv-x="1157" d="M-39 1172l74 220l389 -133v-348q89 48 199 48q139 0 245 -53t169 -165.5t63 -273.5q0 -238 -136 -375t-360 -137q-88 0 -177 21v-229h173v-206h-605v206h172v1352zM424 193q71 -32 176 -32q116 0 175 81.5t59 220.5q0 131 -57.5 208t-168.5 77q-41 0 -87 -15t-72 -31 l-25 -15v-494z" />
<glyph unicode="&#xff;" horiz-adv-x="1256" d="M10 723v207h526v-207h-92l199 -552l178 552h-82v207h509v-207h-171l-329 -943q-54 -154 -144.5 -220.5t-228.5 -66.5q-30 0 -74.5 10.5t-74.5 20.5t-30 11l48 202q86 -28 150 -28q71 0 127 154q-292 724 -348 860h-163zM329 1247q0 60 44.5 104.5t105.5 44.5 q60 0 104.5 -44.5t44.5 -104.5q0 -61 -44.5 -105.5t-104.5 -44.5q-62 0 -106 44.5t-44 105.5zM688 1247q0 60 44 104.5t106 44.5q60 0 104.5 -44.5t44.5 -104.5q0 -61 -44.5 -105.5t-104.5 -44.5q-62 0 -106 44t-44 106z" />
<glyph unicode="&#x152;" horiz-adv-x="1810" d="M61 617q0 292 162.5 440.5t446.5 148.5h938l127 -380l-218 -74l-74 224h-341v-253h333v-226h-335v-268h397l72 202l216 -76l-123 -355h-993q-139 0 -247.5 34.5t-190.5 106.5t-126 192.5t-44 283.5zM335 617q0 -388 341 -388h162v748h-162q-172 0 -256.5 -83t-84.5 -277z " />
<glyph unicode="&#x153;" horiz-adv-x="1554" d="M55 448q0 120 35.5 213.5t101 157t157 97t203.5 33.5q87 0 162 -22.5t126 -57.5q118 80 236 80q208 0 316 -116t108 -346q-3 -41 -5 -63t-4.5 -41t-3.5 -24h-636q36 -199 217 -199q171 0 299 93l112 -143q-50 -50 -100.5 -79t-128.5 -52.5t-184 -23.5q-124 0 -231 71 q-113 -71 -283 -71q-113 0 -204.5 32.5t-156.5 95t-100.5 154.5t-35.5 211zM319 448q0 -140 59 -214t176 -74q76 0 136 28q-61 104 -61 262q0 152 65 259q-63 29 -140 29q-117 0 -176 -75t-59 -215zM857 567h409q0 38 -11.5 69.5t-36 54t-62 35t-88.5 12.5q-168 0 -211 -171 z" />
<glyph unicode="&#x2c6;" horiz-adv-x="770" d="M16 1165l361 319l363 -319l-102 -117l-260 206l-270 -206z" />
<glyph unicode="&#x2dc;" horiz-adv-x="895" d="M57 1207q144 175 270 190q33 4 77.5 -11t80.5 -34.5t77 -34t69 -10.5q37 6 67 28t73 69l124 -99q-73 -90 -134 -135t-128 -51q-37 -3 -99 24t-118 50.5t-87 13.5q-19 -6 -42.5 -25t-36.5 -32.5t-48 -51.5z" />
<glyph unicode="&#x2000;" horiz-adv-x="880" />
<glyph unicode="&#x2001;" horiz-adv-x="1760" />
<glyph unicode="&#x2002;" horiz-adv-x="880" />
<glyph unicode="&#x2003;" horiz-adv-x="1760" />
<glyph unicode="&#x2004;" horiz-adv-x="586" />
<glyph unicode="&#x2005;" horiz-adv-x="440" />
<glyph unicode="&#x2006;" horiz-adv-x="293" />
<glyph unicode="&#x2007;" horiz-adv-x="293" />
<glyph unicode="&#x2008;" horiz-adv-x="220" />
<glyph unicode="&#x2009;" horiz-adv-x="352" />
<glyph unicode="&#x200a;" horiz-adv-x="97" />
<glyph unicode="&#x2010;" horiz-adv-x="903" d="M109 353v206h687v-206h-687z" />
<glyph unicode="&#x2011;" horiz-adv-x="903" d="M109 353v206h687v-206h-687z" />
<glyph unicode="&#x2012;" horiz-adv-x="903" d="M109 353v206h687v-206h-687z" />
<glyph unicode="&#x2013;" horiz-adv-x="1255" d="M109 373v222h1040v-222h-1040z" />
<glyph unicode="&#x2014;" horiz-adv-x="1708" d="M109 371v222h1493v-222h-1493z" />
<glyph unicode="&#x2018;" horiz-adv-x="504" d="M59 885q0 43 15 88t36 80t52.5 73t54.5 61t52 50.5t36 35.5l78 -88l-17 -23q-18 -24 -43 -63t-39 -69q64 -17 95.5 -60t31.5 -96q0 -75 -49.5 -122t-126.5 -47q-69 0 -122.5 54t-53.5 126z" />
<glyph unicode="&#x2019;" horiz-adv-x="489" d="M72 1103q0 75 50 122t127 47q68 0 121.5 -53.5t53.5 -126.5q0 -51 -18.5 -102t-54 -98t-62 -77t-67 -68.5t-44.5 -42.5l-78 88q35 47 60 86t39 69q-64 17 -95.5 60t-31.5 96z" />
<glyph unicode="&#x201a;" horiz-adv-x="524" d="M78 96q0 79 51.5 128t131.5 49q74 0 131.5 -56t57.5 -132q0 -53 -23.5 -114t-56.5 -110t-66.5 -90t-80.5 -86l-112 124q27 63 59 136q-41 20 -66.5 61.5t-25.5 89.5z" />
<glyph unicode="&#x201c;" horiz-adv-x="940" d="M59 885q0 42 15 86.5t36 79.5t52.5 73.5t54 61.5t52.5 51.5t36 35.5l78 -88q-35 -47 -60 -86t-39 -69q64 -17 95.5 -60t31.5 -96q0 -75 -49.5 -122t-126.5 -47q-69 0 -122.5 53.5t-53.5 126.5zM496 885q0 49 18.5 99.5t54.5 98.5t61 77t67.5 70t44.5 43l78 -88l-18 -23 q-17 -24 -42 -63t-39 -69q64 -17 95.5 -60t31.5 -96q0 -75 -49.5 -122t-126.5 -47q-69 0 -122.5 53.5t-53.5 126.5z" />
<glyph unicode="&#x201d;" horiz-adv-x="926" d="M72 1104q0 75 49.5 122t126.5 47q69 0 122.5 -53.5t53.5 -126.5q0 -54 -19 -106.5t-53.5 -98t-62.5 -76t-66 -65.5t-45 -42l-78 88q35 47 60 86t39 69q-64 17 -95.5 60t-31.5 96zM509 1104q0 75 49.5 122t126.5 47q69 0 122.5 -53.5t53.5 -126.5q0 -43 -15 -88t-36 -80 t-52.5 -73t-54.5 -61t-52 -50.5t-36 -35.5l-78 88q35 47 60 86t39 69q-64 17 -95.5 60t-31.5 96z" />
<glyph unicode="&#x201e;" horiz-adv-x="915" d="M78 160q0 75 49 122t126 47q69 0 123 -53.5t54 -125.5q0 -53 -19 -105t-53.5 -98t-62 -76.5t-67 -67t-44.5 -42.5l-78 88q35 47 60 86t39 69q-64 17 -95.5 60t-31.5 96zM488 160q0 75 49 122t126 47q69 0 123 -53.5t54 -125.5q0 -44 -15 -89t-36 -80t-52.5 -73.5 t-54.5 -61t-52 -50t-36 -35.5l-78 88l99 155q-64 17 -95.5 60t-31.5 96z" />
<glyph unicode="&#x2022;" horiz-adv-x="698" d="M61 651q0 60 23 112.5t62.5 91.5t91.5 61.5t111 22.5q58 0 110.5 -23t91.5 -62t62 -91.5t23 -111.5t-23 -111t-62 -91t-91 -62t-111 -23q-119 0 -204 84q-84 84 -84 203z" />
<glyph unicode="&#x202f;" horiz-adv-x="352" />
<glyph unicode="&#x2039;" horiz-adv-x="547" d="M57 444v4l1 -2zM58 446l315 478l167 -120l-228 -360l228 -356l-167 -120z" />
<glyph unicode="&#x203a;" horiz-adv-x="547" d="M6 88l228 356l-228 360l167 120l314 -478l-314 -478zM487 446l2 2v-4z" />
<glyph unicode="&#x205f;" horiz-adv-x="440" />
<glyph unicode="&#x20ac;" horiz-adv-x="1427" d="M63 377l40 160h150q-2 44 -2 70v34h-188l40 160h169q52 214 212.5 332t396.5 118q71 0 138.5 -11t114 -27t82.5 -32t53 -27l17 -11l61 -308l-224 -48l-45 210q1 1 -28 9.5t-78 16.5t-89 8q-256 0 -331 -230h441l-40 -160h-428v-34q0 -37 3 -70h404l-40 -160h-327 q84 -201 318 -201q45 0 94 13t75 25l27 13l45 185l222 -51l-67 -309q-7 -4 -19 -10.5t-53 -23t-84.5 -29.5t-109 -23.5t-130.5 -10.5q-235 0 -392.5 104.5t-212.5 317.5h-215z" />
<glyph unicode="&#xe000;" horiz-adv-x="930" d="M0 0v930h930v-930h-930z" />
</font>
</defs>
</svg>
